<svg width="45" height="44" viewBox="0 0 45 44" fill="none" xmlns="http://www.w3.org/2000/svg">
<g clip-path="url(#clip0)">
<path d="M23.2711 21.1233H24.0173C24.1524 21.1233 24.282 21.0697 24.3775 20.9741C24.473 20.8786 24.5267 20.749 24.5267 20.6139C24.5267 20.4788 24.473 20.3492 24.3775 20.2537C24.282 20.1582 24.1524 20.1045 24.0173 20.1045H23.2711C23.136 20.1045 23.0065 20.1582 22.9109 20.2537C22.8154 20.3492 22.7617 20.4788 22.7617 20.6139C22.7617 20.749 22.8154 20.8786 22.9109 20.9741C23.0065 21.0697 23.136 21.1233 23.2711 21.1233Z" fill="#009DFE"/>
<path d="M13.2791 20.3594H12.529C12.3938 20.3594 12.2643 20.413 12.1687 20.5086C12.0732 20.6041 12.0195 20.7337 12.0195 20.8688C12.0195 21.0039 12.0732 21.1335 12.1687 21.229C12.2643 21.3246 12.3938 21.3782 12.529 21.3782H13.2791C13.4142 21.3782 13.5438 21.3246 13.6393 21.229C13.7348 21.1335 13.7885 21.0039 13.7885 20.8688C13.7885 20.7337 13.7348 20.6041 13.6393 20.5086C13.5438 20.413 13.4142 20.3594 13.2791 20.3594Z" fill="#009DFE"/>
<path d="M34.3789 20.8688C34.3789 21.0039 34.4326 21.1335 34.5281 21.229C34.6236 21.3246 34.7532 21.3782 34.8883 21.3782H35.6385C35.7736 21.3782 35.9031 21.3246 35.9987 21.229C36.0942 21.1335 36.1479 21.0039 36.1479 20.8688C36.1479 20.7337 36.0942 20.6041 35.9987 20.5086C35.9031 20.413 35.7736 20.3594 35.6385 20.3594H34.8883C34.7532 20.3594 34.6236 20.413 34.5281 20.5086C34.4326 20.6041 34.3789 20.7337 34.3789 20.8688Z" fill="#009DFE"/>
<path d="M41.0192 38.1573V17.8831C41.0192 16.0312 39.5144 14.5015 37.6625 14.5015H36.774V12.7848C36.9045 12.7771 37.0273 12.7203 37.1177 12.6259C37.2081 12.5314 37.2594 12.4062 37.2614 12.2754C37.2602 11.7045 37.0327 11.1574 36.6288 10.754C36.2249 10.3506 35.6775 10.1237 35.1066 10.1233C34.9217 10.1229 34.7379 10.0953 34.5611 10.0414C34.2252 9.92732 33.8751 9.86026 33.5207 9.84216C32.9026 9.84091 32.2971 10.0175 31.7765 10.3508C31.366 9.61385 30.6719 8.98242 29.8099 8.98242H29.3793C29.9193 8.7163 30.3737 8.30366 30.6904 7.79163C31.0071 7.2796 31.1734 6.68882 31.1703 6.08677V3.68942C31.3016 3.68191 31.4252 3.62538 31.5167 3.53104C31.6083 3.43669 31.661 3.3114 31.6646 3.17999C31.664 2.60953 31.4372 2.06258 31.0339 1.65915C30.6305 1.25573 30.0836 1.02878 29.5132 1.0281C29.3289 1.02778 29.1456 1.00023 28.9694 0.94634C28.534 0.814144 28.1999 0.74707 27.9455 0.74707C27.5205 0.74785 27.0999 0.832385 26.7076 0.995844C26.3153 1.1593 25.9591 1.39848 25.6593 1.6997C25.3596 2.00092 25.1221 2.35827 24.9605 2.75132C24.7989 3.14438 24.7164 3.56543 24.7176 3.9904V6.08677C24.7176 7.35456 25.4184 8.47334 26.4812 8.98276H26.0506C25.5643 8.98381 25.0897 9.13292 24.6902 9.41026C24.2906 9.6876 23.985 10.08 23.8139 10.5353C23.3579 10.2028 22.8227 9.99559 22.2617 9.93434C21.7007 9.87308 21.1334 9.95992 20.6164 10.1862C20.3826 9.81804 20.0597 9.51478 19.6777 9.30443C19.2957 9.09409 18.8668 8.98346 18.4307 8.98276H18.1995C19.2623 8.47334 19.963 7.35456 19.963 6.08677V3.68942C20.3026 3.6805 20.471 3.45593 20.471 3.17999C20.4715 2.89788 20.4164 2.61844 20.3089 2.35761C20.2014 2.09679 20.0436 1.85969 19.8444 1.65987C19.6453 1.46004 19.4088 1.3014 19.1483 1.193C18.8879 1.0846 18.6086 1.02857 18.3265 1.0281C18.1433 1.02778 17.9612 1.00022 17.7862 0.94634C17.3506 0.814144 17.0045 0.74707 16.7502 0.74707C15.8906 0.748173 15.0667 1.09034 14.4592 1.69845C13.8518 2.30655 13.5105 3.13088 13.5103 3.9904V6.08677C13.5072 6.68892 13.6736 7.2798 13.9904 7.7919C14.3072 8.304 14.7616 8.71667 15.3018 8.98276H15.0707C14.6465 8.98441 14.2291 9.0897 13.8549 9.28947C13.4806 9.48923 13.1609 9.77742 12.9235 10.129C12.8644 10.1241 12.8046 10.1221 12.7452 10.1221C12.5607 10.122 12.3773 10.0946 12.2008 10.0408C11.8634 9.92671 11.5118 9.85977 11.1561 9.8419C10.2954 9.84253 9.47004 10.1844 8.86094 10.7925C8.25183 11.4006 7.90867 12.2254 7.90664 13.0861V14.5015H7.3698C6.47594 14.5074 5.62053 14.8659 4.98967 15.4992C4.3588 16.1324 4.0035 16.9892 4.00106 17.8831V38.1166C3.34713 38.1407 2.72751 38.4153 2.27046 38.8836C1.90369 39.2518 1.65426 39.7204 1.55365 40.2303C1.45304 40.7401 1.50578 41.2684 1.70519 41.7483C1.90461 42.2282 2.24176 42.6383 2.67408 42.9267C3.1064 43.2152 3.61449 43.369 4.13419 43.3689H40.5489C41.2455 43.3674 41.9131 43.0896 42.4051 42.5965C42.8971 42.1034 43.1734 41.4352 43.1734 40.7386C43.172 39.4531 42.2079 38.3813 41.0192 38.1573ZM31.2552 13.0861C31.2605 12.4942 31.4994 11.9284 31.9198 11.5118C32.3402 11.0952 32.9081 10.8615 33.5 10.8616C33.5698 10.8616 33.802 10.8768 34.2642 11.017C34.5362 11.103 34.8194 11.1484 35.1047 11.1518C35.5462 11.1518 35.9301 11.3603 36.1169 11.7848H33.4555C33.3142 11.7819 33.1739 11.8071 33.0425 11.8589C32.9111 11.9108 32.7914 11.9882 32.6902 12.0868C32.5891 12.1854 32.5086 12.3031 32.4534 12.4331C32.3982 12.5631 32.3694 12.7028 32.3687 12.844C32.368 12.9412 32.3479 13.0372 32.3095 13.1265C32.2712 13.2157 32.2154 13.2964 32.1455 13.3638C32.0755 13.4312 31.9928 13.484 31.9021 13.519C31.8115 13.554 31.7148 13.5705 31.6177 13.5676H31.2552V13.0861ZM35.3998 18.0675H34.9691C35.0737 18.0167 35.1754 17.96 35.2736 17.8977H37.708V20.3064C37.6 19.8666 37.4078 19.4519 37.1422 19.0851C36.6663 18.4338 36.0462 18.0675 35.3998 18.0675ZM36.774 20.9731V22.2244L30.2364 22.1161V20.4718C30.2439 20.1035 30.3948 19.7526 30.657 19.4939C30.9192 19.2351 31.2721 19.0889 31.6405 19.0863H35.3998C36.0927 19.0863 36.774 20.1731 36.774 20.9731ZM35.7448 12.7852V12.7888L35.7421 12.7852H35.7448ZM31.2552 14.5864H31.6177C31.8486 14.5892 32.0778 14.5462 32.292 14.46C32.5062 14.3737 32.7013 14.2459 32.8658 14.0839C33.0304 13.9219 33.1612 13.7289 33.2508 13.516C33.3404 13.3032 33.387 13.0747 33.3878 12.8438C33.3878 12.8064 33.4182 12.8034 33.4557 12.8034H34.6414C34.711 13.0785 34.8499 13.331 35.0449 13.5371C35.2399 13.7432 35.4844 13.8958 35.7552 13.9805V15.1822C35.7552 15.7789 35.5181 16.3512 35.0962 16.7732C34.6742 17.1951 34.1019 17.4322 33.5052 17.4322C32.9085 17.4322 32.3362 17.1951 31.9142 16.7732C31.4923 16.3512 31.2552 15.7789 31.2552 15.1822V14.5864ZM30.1549 3.69324L30.1522 3.68959H30.1549V3.69324ZM25.7365 3.9904C25.7351 3.69918 25.7912 3.41054 25.9015 3.14102C26.0119 2.87151 26.1743 2.62641 26.3795 2.41977C26.5847 2.21313 26.8287 2.04901 27.0975 1.93681C27.3662 1.82461 27.6545 1.76654 27.9457 1.76592C28.0155 1.76592 28.2199 1.78103 28.6816 1.92121C28.9519 2.00893 29.2338 2.05619 29.5179 2.06147C29.7309 2.05319 29.9414 2.1098 30.1215 2.2238C30.3015 2.3378 30.4427 2.50382 30.5263 2.69986H27.8655C27.7243 2.69693 27.584 2.72212 27.4526 2.77397C27.3212 2.82582 27.2015 2.90328 27.1003 3.00186C26.9992 3.10043 26.9187 3.21814 26.8635 3.34814C26.8083 3.47813 26.7795 3.61781 26.7788 3.75904C26.7781 3.85621 26.758 3.95227 26.7197 4.04157C26.6814 4.13087 26.6256 4.21161 26.5557 4.27905C26.4857 4.34648 26.403 4.39925 26.3123 4.43425C26.2217 4.46924 26.1249 4.48577 26.0278 4.48285H25.7365V3.9904ZM25.7365 6.0866V5.5017H26.0278C26.2587 5.50448 26.4879 5.4615 26.7021 5.37525C26.9163 5.289 27.1113 5.16118 27.2759 4.99916C27.4405 4.83715 27.5713 4.64415 27.6609 4.4313C27.7505 4.21845 27.797 3.98997 27.7979 3.75904C27.7979 3.72168 27.8283 3.71871 27.8658 3.71871H29.0515C29.1325 3.98474 29.274 4.22844 29.4648 4.43076C29.6557 4.63308 29.8907 4.78855 30.1515 4.88504V6.08677C30.1515 6.67224 29.9189 7.23372 29.5049 7.64771C29.0909 8.0617 28.5295 8.29427 27.944 8.29427C27.3585 8.29427 26.797 8.0617 26.3831 7.64771C25.9691 7.23372 25.7365 6.67224 25.7365 6.08677V6.0866ZM26.0506 10.0016H29.81C30.2994 10.0016 30.7502 10.5092 30.9908 11.0568C30.8154 11.2756 30.669 11.516 30.5552 11.7723C30.556 11.761 30.5569 11.7304 30.5569 11.719C30.5576 11.5818 30.5047 11.4499 30.4096 11.3511C30.3144 11.2524 30.1845 11.1947 30.0475 11.1903H29.2974C29.1623 11.1903 29.0327 11.2439 28.9371 11.3395C28.8416 11.435 28.7879 11.5646 28.7879 11.6997C28.7879 11.8348 28.8416 11.9644 28.9371 12.0599C29.0327 12.1554 29.1623 12.2091 29.2974 12.2091H30.0475C30.1194 12.2127 30.1912 12.199 30.2567 12.1693C30.3223 12.1396 30.3799 12.0946 30.4245 12.0381C30.3066 12.3752 30.2431 12.729 30.2364 13.0861V14.5015H26.4685C26.8221 14.1203 27.0179 13.6192 27.0164 13.0993C27.0156 12.8246 26.9606 12.5526 26.8543 12.2992C26.7481 12.0458 26.5928 11.8159 26.3974 11.6227C26.2021 11.4295 25.9704 11.2769 25.7158 11.1735C25.4612 11.0701 25.1887 11.0181 24.9139 11.0205H24.7372C24.8146 10.7304 24.985 10.4737 25.2222 10.2897C25.4594 10.1057 25.7504 10.0045 26.0506 10.0016ZM24.9347 12.008C25.2183 12.0135 25.4885 12.1299 25.6873 12.3323C25.886 12.5347 25.9975 12.8069 25.9979 13.0906C26.0015 13.3393 25.9179 13.5814 25.7616 13.7749C25.6053 13.9684 25.3861 14.101 25.1422 14.1497V13.1451C25.1423 12.7566 25.072 12.3713 24.9347 12.008H24.9347ZM25.0723 15.5204H30.2569C30.3104 16.004 30.4746 16.4689 30.7368 16.8788H24.4358C24.7519 16.4824 24.9699 16.0169 25.0723 15.5204ZM31.7659 17.8977C31.8644 17.9599 31.9663 18.0165 32.0711 18.0675H31.6405C30.3231 18.0675 29.2176 19.1543 29.2176 20.4718V22.6171C29.2215 22.7522 29.2776 22.8805 29.3742 22.975C29.4708 23.0695 29.6003 23.1229 29.7355 23.1239L37.271 23.2466H37.2795C37.4134 23.2476 37.5424 23.196 37.6387 23.103C37.6646 23.0774 37.6878 23.0492 37.708 23.0188V36.0671H7.31232V23.1523C7.34154 23.1584 7.37128 23.1615 7.40113 23.1617H14.9197C15.0619 23.1551 15.1965 23.0956 15.2971 22.9948C15.3976 22.894 15.4568 22.7593 15.4631 22.6171V20.6713C15.4631 19.2439 14.2681 18.0675 12.8408 18.0675H12.6096C12.7143 18.0165 12.8162 17.9599 12.9148 17.8977H19.6026C19.0476 18.0501 18.558 18.3806 18.2089 18.8382C17.8599 19.2959 17.6708 19.8555 17.6706 20.431V22.6171C17.6706 22.8984 17.8924 23.1617 18.1737 23.1617H25.6516C25.933 23.1617 26.161 22.8985 26.161 22.6171V20.431C26.1599 19.8549 25.9698 19.295 25.6197 18.8374C25.2697 18.3797 24.7792 18.0496 24.2234 17.8977H31.7659ZM7.90664 22.1429V20.6713C7.90734 20.2531 8.07301 19.8521 8.36766 19.5553C8.66232 19.2586 9.06216 19.09 9.48034 19.0863H12.8408C13.262 19.089 13.6656 19.2562 13.9652 19.5524C14.2648 19.8485 14.4367 20.2501 14.4443 20.6713V22.1429H7.90664ZM20.2529 18.8316H23.5726C24.4383 18.8316 25.1422 19.5655 25.1422 20.431V22.1429H18.6895V20.431C18.6895 19.5655 19.3873 18.8316 20.2529 18.8316ZM24.1233 14.8793C24.1233 15.4647 23.8907 16.0262 23.4767 16.4402C23.0628 16.8542 22.5013 17.0868 21.9158 17.0868C21.3303 17.0868 20.7689 16.8542 20.3549 16.4402C19.9409 16.0262 19.7083 15.4647 19.7083 14.8793V14.2468H19.7856C20.9098 14.2472 22.0034 13.8814 22.9011 13.2047C23.1825 13.6836 23.6139 14.1518 24.1233 14.2729V14.8793ZM21.9158 10.9356C22.5012 10.9362 23.0624 11.1692 23.4763 11.5832C23.8901 11.9972 24.1228 12.5585 24.1233 13.1439C23.8648 12.9098 23.6343 12.4392 23.555 12.2185C23.5262 12.1372 23.4773 12.0646 23.4128 12.0074C23.3483 11.9502 23.2703 11.9103 23.1862 11.8915C23.103 11.8709 23.0159 11.8719 22.9331 11.8944C22.8503 11.9168 22.7747 11.96 22.7132 12.0199C21.9359 12.7945 20.883 13.229 19.7856 13.228H19.7083V13.1451C19.7084 12.5595 19.941 11.9979 20.3549 11.5836C20.7688 11.1693 21.3302 10.9362 21.9158 10.9356ZM18.9751 3.69324L18.9724 3.68959H18.9751V3.69324ZM14.5292 3.9904C14.5295 3.40079 14.7637 2.8354 15.1805 2.41834C15.5973 2.00128 16.1625 1.76664 16.7521 1.76592C16.8219 1.76592 17.0331 1.78103 17.4949 1.92121C17.7664 2.00893 18.0493 2.05619 18.3346 2.06147C18.5481 2.05313 18.759 2.10967 18.9397 2.22364C19.1203 2.3376 19.2622 2.50364 19.3465 2.69986H16.6857C16.5445 2.69692 16.4041 2.72211 16.2728 2.77395C16.1414 2.82579 16.0216 2.90326 15.9205 3.00183C15.8193 3.10041 15.7388 3.21812 15.6836 3.34812C15.6284 3.47812 15.5996 3.61781 15.5989 3.75904C15.5983 3.85621 15.5782 3.95226 15.5399 4.04156C15.5016 4.13085 15.4458 4.21159 15.3758 4.27902C15.3059 4.34645 15.2231 4.39922 15.1325 4.43422C15.0418 4.46922 14.9451 4.48576 14.848 4.48285H14.5292V3.9904ZM14.5292 6.0866V5.5017H14.848C15.0789 5.50444 15.308 5.46144 15.5222 5.37518C15.7364 5.28891 15.9314 5.16108 16.0959 4.99907C16.2605 4.83706 16.3913 4.64407 16.4809 4.43124C16.5704 4.21841 16.617 3.98995 16.6178 3.75904C16.6178 3.72168 16.6481 3.71871 16.6857 3.71871H17.8714C17.9469 3.98331 18.0832 4.22659 18.2695 4.4291C18.4557 4.63162 18.6868 4.78776 18.9442 4.88504V6.08677C18.9442 6.67224 18.7116 7.23372 18.2976 7.64771C17.8836 8.0617 17.3221 8.29427 16.7367 8.29427C16.1512 8.29427 15.5897 8.0617 15.1757 7.64771C14.7617 7.23372 14.5292 6.67224 14.5292 6.08677V6.0866ZM15.0702 10.0016H18.4307C18.6965 10.0023 18.9578 10.0703 19.1903 10.1992C19.4228 10.3282 19.6188 10.5139 19.7601 10.7391C19.5535 10.9179 19.3712 11.123 19.2177 11.349C19.1253 11.2538 19.0003 11.1971 18.8678 11.1903H18.1176C17.9825 11.1903 17.8529 11.2439 17.7574 11.3395C17.6619 11.435 17.6082 11.5646 17.6082 11.6997C17.6082 11.8348 17.6619 11.9644 17.7574 12.0599C17.8529 12.1554 17.9825 12.2091 18.1176 12.2091H18.8117C18.7324 12.5148 18.6913 12.8292 18.6895 13.1451V14.5015H14.4443V12.7848C14.5732 12.7764 14.694 12.7189 14.7818 12.6241C14.8696 12.5294 14.9179 12.4046 14.9166 12.2754C14.9145 11.9208 14.8254 11.5721 14.657 11.26C14.4886 10.9479 14.2461 10.682 13.9509 10.4856C14.0952 10.3336 14.2688 10.2125 14.4611 10.1293C14.6535 10.0461 14.8607 10.0027 15.0702 10.0016ZM14.4237 15.5204H18.7557C18.8575 16.0191 19.0796 16.4854 19.4026 16.8788H13.9438C14.206 16.4689 14.3702 16.004 14.4237 15.5204ZM8.92549 13.0861C8.9274 12.4958 9.16311 11.9303 9.58103 11.5134C9.99894 11.0964 10.565 10.8621 11.1553 10.8616C11.2251 10.8616 11.4398 10.8768 11.9015 11.017C12.1739 11.1029 12.4574 11.1483 12.743 11.1518C13.1845 11.1518 13.5697 11.3603 13.7565 11.7848H11.0958C10.9546 11.7819 10.8142 11.8071 10.6828 11.8589C10.5515 11.9108 10.4317 11.9882 10.3306 12.0868C10.2294 12.1854 10.1489 12.3031 10.0937 12.4331C10.0385 12.5631 10.0097 12.7028 10.009 12.844C10.0083 12.9412 9.98822 13.0372 9.94989 13.1265C9.91156 13.2157 9.85577 13.2964 9.78582 13.3638C9.71586 13.4312 9.63313 13.484 9.5425 13.519C9.45187 13.554 9.35517 13.5705 9.25806 13.5676H8.92549V13.0861ZM13.3852 12.7852V12.7888L13.3824 12.7852H13.3852ZM8.92549 14.5864H9.25806C9.48898 14.5892 9.71816 14.5462 9.93238 14.46C10.1466 14.3737 10.3416 14.2459 10.5062 14.0839C10.6707 13.9219 10.8016 13.7289 10.8912 13.516C10.9808 13.3032 11.0273 13.0747 11.0281 12.8438C11.0281 12.8064 11.0585 12.8034 11.0961 12.8034H12.2817C12.3577 13.0801 12.5024 13.3331 12.7024 13.5389C12.9023 13.7447 13.151 13.8966 13.4254 13.9805V15.1822C13.4254 15.7789 13.1884 16.3512 12.7664 16.7732C12.3445 17.1951 11.7722 17.4322 11.1754 17.4322C10.5787 17.4322 10.0064 17.1951 9.58449 16.7732C9.16254 16.3512 8.92549 15.7789 8.92549 15.1822V14.5864ZM9.40707 17.8977C9.50526 17.96 9.60688 18.0166 9.71145 18.0675H9.48034C9.04909 18.0688 8.62499 18.1777 8.24643 18.3843C7.86787 18.5909 7.54681 18.8886 7.31232 19.2505V17.8977H9.40707ZM5.01991 17.8831C5.02205 17.2593 5.26991 16.6615 5.70977 16.2193C6.14963 15.777 6.74606 15.5259 7.3698 15.5204H7.92643C7.97704 16.0026 8.13642 16.4671 8.39255 16.8788H6.81911C6.68262 16.8776 6.55108 16.9299 6.45279 17.0246C6.3545 17.1193 6.29729 17.2488 6.29347 17.3853V36.5963C6.29571 36.663 6.3111 36.7286 6.33876 36.7893C6.36641 36.8501 6.40578 36.9048 6.45462 36.9503C6.50345 36.9958 6.56078 37.0312 6.62333 37.0545C6.68588 37.0777 6.75241 37.0885 6.81911 37.086H38.2131C38.2792 37.0883 38.345 37.0773 38.4068 37.0538C38.4686 37.0303 38.5251 36.9947 38.5729 36.9491C38.6208 36.9035 38.659 36.8488 38.6854 36.7882C38.7119 36.7276 38.7259 36.6624 38.7268 36.5963V17.3853C38.7257 17.25 38.671 17.1208 38.5747 17.0258C38.4784 16.9309 38.3484 16.878 38.2131 16.8788H36.2881C36.5442 16.4671 36.7036 16.0026 36.7542 15.5204H37.6627C38.2852 15.5263 38.8801 15.778 39.3179 16.2205C39.7557 16.663 40.001 17.2606 40.0004 17.8831V38.1048H27.858C27.4671 38.1096 27.0939 38.2683 26.8193 38.5464C26.5447 38.8246 26.3908 39.1998 26.3911 39.5907C26.3917 39.7114 26.3453 39.8277 26.2617 39.9148C26.1781 40.002 26.0638 40.0532 25.9431 40.0576H18.284C18.1633 40.0531 18.0491 40.0019 17.9656 39.9148C17.882 39.8276 17.8356 39.7114 17.8362 39.5907C17.8364 39.1998 17.6826 38.8246 17.4079 38.5464C17.1333 38.2683 16.7601 38.1096 16.3693 38.1048H5.01991V17.8831ZM40.5465 42.35H4.13419C3.70635 42.35 3.29603 42.1801 2.9935 41.8775C2.69097 41.575 2.52101 41.1647 2.52101 40.7369C2.52101 40.309 2.69097 39.8987 2.9935 39.5962C3.29603 39.2936 3.70635 39.1237 4.13419 39.1237H16.3693C16.49 39.1281 16.6042 39.1793 16.6878 39.2665C16.7714 39.3536 16.8179 39.4699 16.8173 39.5907C16.817 39.9815 16.9708 40.3566 17.2453 40.6348C17.5199 40.9129 17.893 41.0717 18.2838 41.0765H25.9432C26.3341 41.0717 26.7072 40.913 26.9818 40.6349C27.2564 40.3567 27.4102 39.9815 27.4099 39.5907C27.4094 39.4698 27.4559 39.3536 27.5396 39.2664C27.6233 39.1793 27.7376 39.1281 27.8583 39.1237H40.5465C40.9743 39.1237 41.3846 39.2936 41.6871 39.5962C41.9897 39.8987 42.1596 40.309 42.1596 40.7369C42.1596 41.1647 41.9897 41.575 41.6871 41.8775C41.3846 42.1801 40.9743 42.35 40.5465 42.35Z" fill="#009DFE"/>
<path d="M16.0117 29.5724C16.0117 30.8244 16.383 32.0483 17.0785 33.0893C17.7741 34.1303 18.7627 34.9417 19.9194 35.4208C21.0761 35.9 22.349 36.0254 23.5769 35.7811C24.8049 35.5369 25.9328 34.934 26.8181 34.0487C27.7035 33.1634 28.3064 32.0354 28.5506 30.8075C28.7949 29.5795 28.6695 28.3067 28.1904 27.15C27.7113 25.9933 26.8999 25.0046 25.8589 24.309C24.8179 23.6135 23.594 23.2422 22.342 23.2422C20.6637 23.2441 19.0547 23.9116 17.8679 25.0983C16.6812 26.2851 16.0136 27.8941 16.0117 29.5724ZM20.0942 24.7616C19.7588 25.1661 19.4754 25.6111 19.2507 26.0861C19.0721 25.9595 18.9016 25.8216 18.7404 25.6734C19.1422 25.3018 19.5988 24.9942 20.0942 24.7616ZM18.0614 26.4644C18.3141 26.692 18.5852 26.8982 18.872 27.081C18.6704 27.738 18.5536 28.4182 18.5245 29.1049H17.0557C17.1394 28.1485 17.4876 27.2342 18.0614 26.4644ZM17.0555 30.1237H18.5244C18.5606 30.7959 18.6773 31.4614 18.8719 32.1058C18.5847 32.2958 18.3135 32.5091 18.0611 32.7434C17.5012 31.9739 17.1543 31.0702 17.0555 30.1237ZM18.7404 33.4716C18.9016 33.3234 19.0721 33.1856 19.2507 33.0589C19.4754 33.5339 19.7588 33.9789 20.0942 34.3834C19.5988 34.1508 19.1422 33.8432 18.7404 33.4716ZM21.8326 34.5982C21.092 34.0835 20.5066 33.3758 20.1397 32.552C20.6758 32.3117 21.2477 32.1611 21.8326 32.106V34.5982ZM21.8326 31.0847C21.1276 31.1471 20.4377 31.3257 19.791 31.6131C19.6587 31.1263 19.5764 30.6273 19.5453 30.1237H21.8326V31.0847ZM21.8326 29.1049H19.5453C19.5696 28.5869 19.652 28.0734 19.791 27.5738C20.4399 27.8479 21.1298 28.0124 21.8326 28.0606V29.1049ZM21.8326 27.0388C21.2477 26.9838 20.6759 26.8332 20.1398 26.5931C20.5066 25.7692 21.0921 25.0616 21.8326 24.5468V27.0388ZM24.5897 34.383C24.9219 33.9825 25.203 33.5423 25.4266 33.0725C25.6026 33.1993 25.7706 33.337 25.9295 33.4848C25.5311 33.8505 25.0793 34.1534 24.5897 34.3832V34.383ZM26.6113 32.7486C26.3609 32.5208 26.0922 32.3139 25.8078 32.1303C26.0045 31.4778 26.1225 30.8042 26.1594 30.1237H27.6283C27.5276 31.0734 27.1767 31.9793 26.6113 32.7489V32.7486ZM27.6285 29.1049H26.1596C26.13 28.4132 26.0118 27.7283 25.8079 27.0667C26.0923 26.883 26.3611 26.6762 26.6115 26.4483C27.1909 27.2221 27.5431 28.142 27.6285 29.1049ZM25.9294 25.6597C25.7706 25.8075 25.6026 25.9452 25.4266 26.072C25.203 25.6022 24.9219 25.1621 24.5897 24.7616C25.0793 24.9913 25.531 25.2942 25.9294 25.6597ZM22.8514 24.5468C23.5897 25.0598 24.1739 25.7646 24.541 26.5853C24.0068 26.829 23.4358 26.982 22.8514 27.0382V24.5468ZM22.8514 28.06C23.5541 28.0108 24.2435 27.8438 24.8909 27.5662C25.0309 28.0682 25.114 28.5843 25.1386 29.1049H22.8514V28.06ZM22.8514 30.1237H25.1386C25.1071 30.6298 25.0241 31.1313 24.8909 31.6205C24.2457 31.3294 23.5564 31.1483 22.8514 31.0848V30.1237ZM22.8514 32.1065C23.4357 32.1628 24.0065 32.3159 24.5406 32.5595C24.1737 33.3802 23.5896 34.0851 22.8514 34.5982V32.1065Z" fill="#009DFE"/>
<path d="M9.00942 24.7627C8.87432 24.7627 8.74474 24.8164 8.64921 24.9119C8.55367 25.0074 8.5 25.137 8.5 25.2721V25.6595C8.5 25.7946 8.55367 25.9242 8.64921 26.0198C8.74474 26.1153 8.87432 26.169 9.00942 26.169C9.14453 26.169 9.27411 26.1153 9.36964 26.0198C9.46518 25.9242 9.51885 25.7946 9.51885 25.6595V25.2721C9.51885 25.137 9.46518 25.0074 9.36964 24.9119C9.27411 24.8164 9.14453 24.7627 9.00942 24.7627Z" fill="#009DFE"/>
<path d="M9.00942 26.8467C8.87432 26.8467 8.74474 26.9004 8.64921 26.9959C8.55367 27.0914 8.5 27.221 8.5 27.3561V33.0628C8.5 33.1979 8.55367 33.3274 8.64921 33.423C8.74474 33.5185 8.87432 33.5722 9.00942 33.5722C9.14453 33.5722 9.27411 33.5185 9.36964 33.423C9.46518 33.3274 9.51885 33.1979 9.51885 33.0628V27.3561C9.51885 27.221 9.46518 27.0914 9.36964 26.9959C9.27411 26.9004 9.14453 26.8467 9.00942 26.8467Z" fill="#009DFE"/>
</g>
<defs>
<clipPath id="clip0">
<rect width="43.4709" height="43.4709" fill="white" transform="translate(0.605469 0.322266)"/>
</clipPath>
</defs>
</svg>
