<svg width="45" height="44" viewBox="0 0 45 44" fill="none" xmlns="http://www.w3.org/2000/svg">
<g clip-path="url(#clip0)">
<path d="M22.2991 19.8842C22.1933 19.8842 22.0882 19.861 21.9904 19.8154L9.67368 14.0193C9.4201 13.8997 9.25781 13.644 9.25781 13.3636C9.25781 13.0832 9.4201 12.8274 9.67368 12.7079L21.9904 6.91178C22.186 6.81977 22.4121 6.81977 22.6077 6.91178L34.9245 12.7079C35.178 12.8274 35.3403 13.0832 35.3403 13.3636C35.3403 13.644 35.178 13.8997 34.9245 14.0193L22.6077 19.8154C22.5099 19.861 22.4048 19.8842 22.2991 19.8842ZM11.6842 13.3636L22.2991 18.3591L32.9139 13.3636L22.2991 8.36806L11.6842 13.3636Z" fill="#009DFE"/>
<path d="M22.2976 25.6801C22.1867 25.6801 22.0752 25.6547 21.9737 25.604L13.2796 21.2569C13.034 21.1338 12.8789 20.8831 12.8789 20.6085V15.0681C12.8789 14.8204 13.0057 14.5892 13.2151 14.4567C13.4245 14.3233 13.6875 14.3081 13.9113 14.4125L22.2976 18.3589L30.6831 14.4125C30.9077 14.3074 31.1707 14.3233 31.3794 14.4567C31.5895 14.5892 31.7163 14.8204 31.7163 15.0681V20.6085C31.7163 20.8831 31.5612 21.1338 31.3156 21.2569L22.6214 25.604C22.52 25.6547 22.4084 25.6801 22.2976 25.6801ZM14.3279 20.1608L22.2976 24.1456L30.2672 20.1608V16.21L22.6062 19.8152C22.4106 19.9072 22.1846 19.9072 21.9889 19.8152L14.3279 16.21V20.1608Z" fill="#009DFE"/>
<path d="M34.6154 14.0877H22.2987C21.8988 14.0877 21.5742 13.7631 21.5742 13.3632C21.5742 12.9633 21.8988 12.6387 22.2987 12.6387H34.6154C35.0154 12.6387 35.34 12.9633 35.34 13.3632C35.34 13.7631 35.0154 14.0877 34.6154 14.0877Z" fill="#009DFE"/>
<path d="M34.6151 20.6083C34.2152 20.6083 33.8906 20.2837 33.8906 19.8838V13.3632C33.8906 12.9633 34.2152 12.6387 34.6151 12.6387C35.0151 12.6387 35.3396 12.9633 35.3396 13.3632V19.8838C35.3396 20.2837 35.0151 20.6083 34.6151 20.6083Z" fill="#009DFE"/>
<path d="M22.2987 15.5375C21.8988 15.5375 21.5742 15.2129 21.5742 14.813V11.9149C21.5742 11.515 21.8988 11.1904 22.2987 11.1904C22.6986 11.1904 23.0232 11.515 23.0232 11.9149V14.813C23.0232 15.2129 22.6986 15.5375 22.2987 15.5375Z" fill="#009DFE"/>
<path d="M33.1651 22.7825C33.0274 22.7825 32.8876 22.7433 32.7637 22.6608C32.4312 22.4391 32.3413 21.9891 32.563 21.6559L34.0121 19.4823C34.2338 19.149 34.683 19.0585 35.017 19.2816C35.3495 19.5033 35.4394 19.9533 35.2177 20.2865L33.7686 22.4601C33.6288 22.6694 33.3991 22.7825 33.1651 22.7825Z" fill="#009DFE"/>
<path d="M36.0648 22.7825C35.8308 22.7825 35.6011 22.6694 35.4613 22.4601L34.0123 20.2865C33.7905 19.954 33.8804 19.5033 34.2129 19.2816C34.5455 19.0585 34.9954 19.149 35.2178 19.4823L36.6669 21.6559C36.8886 21.9884 36.7987 22.4391 36.4662 22.6608C36.3423 22.7433 36.2025 22.7825 36.0648 22.7825Z" fill="#009DFE"/>
<path d="M22.2987 22.0581C21.8988 22.0581 21.5742 21.7335 21.5742 21.3336V19.1601C21.5742 18.7601 21.8988 18.4355 22.2987 18.4355C22.6986 18.4355 23.0232 18.7601 23.0232 19.1601V21.3336C23.0232 21.7335 22.6986 22.0581 22.2987 22.0581Z" fill="#009DFE"/>
<path d="M43.3088 28.5784H1.28701C0.887082 28.5784 0.5625 28.2538 0.5625 27.8539V3.94566C0.5625 2.34738 1.863 1.04688 3.46128 1.04688H41.1345C42.7328 1.04688 44.0333 2.34738 44.0333 3.94566V27.8539C44.0333 28.2538 43.7087 28.5784 43.3088 28.5784ZM2.01153 27.1294H42.5843V3.94566C42.5843 3.14579 41.9344 2.4959 41.1345 2.4959H3.46128C2.66142 2.4959 2.01153 3.14579 2.01153 3.94566V27.1294Z" fill="#009DFE"/>
<path d="M41.1345 34.374H3.46128C1.863 34.374 0.5625 33.0735 0.5625 31.4753V27.8534C0.5625 27.4535 0.887082 27.1289 1.28701 27.1289H43.3088C43.7087 27.1289 44.0333 27.4535 44.0333 27.8534V31.4753C44.0333 33.0735 42.7328 34.374 41.1345 34.374ZM2.01153 28.5779V31.4753C2.01153 32.2751 2.66142 32.925 3.46128 32.925H41.1345C41.9344 32.925 42.5843 32.2751 42.5843 31.4753V28.5779H2.01153Z" fill="#009DFE"/>
<path d="M24.4701 31.4764H20.123C19.723 31.4764 19.3984 31.1518 19.3984 30.7518C19.3984 30.3519 19.723 30.0273 20.123 30.0273H24.4701C24.87 30.0273 25.1946 30.3519 25.1946 30.7518C25.1946 31.1518 24.87 31.4764 24.4701 31.4764Z" fill="#009DFE"/>
<path d="M40.4112 28.5788H4.18545C3.78552 28.5788 3.46094 28.2542 3.46094 27.8543V4.66983C3.46094 4.26989 3.78552 3.94531 4.18545 3.94531H40.4112C40.8111 3.94531 41.1357 4.26989 41.1357 4.66983V27.8543C41.1357 28.2542 40.8111 28.5788 40.4112 28.5788ZM4.90997 27.1298H39.6866V5.39434H4.90997V27.1298Z" fill="#009DFE"/>
<path d="M31.718 43.0687H12.8806C11.6822 43.0687 10.707 42.0936 10.707 40.8952C10.707 39.6969 11.6822 38.7217 12.8806 38.7217H31.718C32.9163 38.7217 33.8915 39.6969 33.8915 40.8952C33.8915 42.0936 32.9163 43.0687 31.718 43.0687ZM12.8806 40.1707C12.4814 40.1707 12.1561 40.496 12.1561 40.8952C12.1561 41.2944 12.4814 41.6197 12.8806 41.6197H31.718C32.1172 41.6197 32.4425 41.2944 32.4425 40.8952C32.4425 40.496 32.1172 40.1707 31.718 40.1707H12.8806Z" fill="#009DFE"/>
<path d="M30.2693 40.1709H14.33C13.9301 40.1709 13.6055 39.8463 13.6055 39.4464C13.6055 39.0465 13.9301 38.7219 14.33 38.7219C16.7339 38.7219 17.9526 37.0157 17.9526 33.6503C17.9526 33.2504 18.2771 32.9258 18.6771 32.9258H25.9222C26.3221 32.9258 26.6467 33.2504 26.6467 33.6503C26.6467 37.0157 27.8654 38.7219 30.2693 38.7219C30.6692 38.7219 30.9938 39.0465 30.9938 39.4464C30.9938 39.8463 30.6692 40.1709 30.2693 40.1709ZM17.8591 38.7219H26.7409C25.8483 37.7336 25.323 36.2622 25.218 34.3748H19.382C19.2762 36.2622 18.7517 37.7336 17.8591 38.7219Z" fill="#009DFE"/>
</g>
<defs>
<clipPath id="clip0">
<rect width="43.4709" height="43.4709" fill="white" transform="translate(0.5625 0.322266)"/>
</clipPath>
</defs>
</svg>
