<svg width="49" height="42" viewBox="0 0 49 42" fill="none" xmlns="http://www.w3.org/2000/svg">
<path d="M21.8047 14.3379H24.0713V15.5046H21.8047V14.3379Z" fill="#009DFE"/>
<path d="M41.1504 12.5943L37.3012 12.0285C36.5993 11.5847 35.8709 11.1874 35.1199 10.8388C32.6398 9.68246 29.9481 9.08579 27.2252 9.08888H26.5565C23.3432 9.09125 20.1813 9.92122 17.359 11.5031L15.4164 12.5939C13.1424 12.6202 10.9123 13.2427 8.93671 14.4019C8.13384 14.8758 7.6381 15.7552 7.63672 16.7076V20.1711C7.63672 20.4934 7.89035 20.7544 8.20348 20.7544H10.1062C10.7251 22.5717 12.658 23.5286 14.4235 22.8916C15.3954 22.5411 16.1593 21.7546 16.4999 20.7544H31.6396C32.2584 22.5717 34.1914 23.5286 35.9569 22.8916C36.9286 22.5411 37.6927 21.7546 38.0332 20.7544H38.2366C38.3088 20.7544 38.3803 20.7404 38.4474 20.7129L40.2828 19.9548C41.1027 19.6207 41.6397 18.8038 41.6367 17.8964V13.1718C41.6367 12.8817 41.4294 12.6356 41.1504 12.5943ZM15.5241 20.0545C15.2734 21.3169 14.076 22.1312 12.8496 21.8732C11.6229 21.6152 10.8318 20.3828 11.0825 19.1201C11.3333 17.8577 12.5307 17.0434 13.7572 17.3014C14.8125 17.5233 15.5702 18.4791 15.57 19.5879C15.57 19.7446 15.5545 19.901 15.5241 20.0545ZM25.77 19.5879H16.7032C16.7032 17.6551 15.1812 16.0882 13.3034 16.0882C11.4256 16.0882 9.90329 17.6551 9.90329 19.5879H8.77001V16.7076C8.7707 16.1734 9.04877 15.6799 9.49932 15.4146C11.3486 14.3278 13.4408 13.7559 15.57 13.7551H25.77V19.5879ZM25.77 12.5886H17.7925L17.9018 12.5272C20.3245 11.172 23.0155 10.4037 25.77 10.281V12.5886ZM26.9033 10.2554H27.224C29.5077 10.2528 31.7705 10.699 33.8916 11.5702L32.9022 12.5886H26.9033V10.2554ZM37.0574 20.0545C36.8068 21.3169 35.6094 22.1312 34.3827 21.8732C33.1563 21.6152 32.3652 20.3828 32.6158 19.1201C32.8665 17.8577 34.0641 17.0434 35.2905 17.3014C36.3459 17.5233 37.1036 18.4791 37.1033 19.5879C37.1033 19.7446 37.0879 19.901 37.0574 20.0545ZM40.5034 14.3383H38.8034V15.505H40.5034V17.8964C40.5048 18.3262 40.2502 18.7131 39.862 18.8709L38.2366 19.5428C38.2366 19.4892 38.2299 19.436 38.2265 19.3824C38.223 19.3287 38.2219 19.2659 38.2163 19.2075C38.2106 19.1491 38.1993 19.0907 38.1903 19.0326C38.181 18.9742 38.1744 18.9158 38.1631 18.8629C38.1518 18.8097 38.1352 18.7508 38.1204 18.6953C38.1056 18.64 38.0943 18.584 38.0773 18.5296C38.0605 18.4755 38.0399 18.4235 38.0208 18.3704C38.0014 18.3175 37.9839 18.2626 37.9641 18.2099C37.9442 18.1575 37.9175 18.1098 37.8937 18.0602C37.87 18.0106 37.8467 17.9562 37.8202 17.9062C37.7934 17.8561 37.7635 17.8134 37.7379 17.7668C37.7125 17.7201 37.6814 17.6669 37.6491 17.6192C37.6166 17.5713 37.5866 17.5335 37.5555 17.4903C37.5244 17.4471 37.4891 17.3964 37.4529 17.3515C37.4167 17.3066 37.3828 17.2715 37.3475 17.2347C37.3125 17.1982 37.2733 17.1486 37.2343 17.1078C37.1951 17.0669 37.1566 17.0347 37.1176 16.9986C37.0784 16.9625 37.0365 16.9198 36.9933 16.8818C36.9505 16.8441 36.9066 16.8149 36.8638 16.7817C36.8206 16.7484 36.7775 16.7128 36.7323 16.6817C36.6869 16.6509 36.636 16.6236 36.5873 16.5908C36.5384 16.5581 36.4988 16.5325 36.4529 16.5075C36.407 16.4824 36.3498 16.456 36.2977 16.4304C36.2456 16.4048 36.2048 16.382 36.1566 16.3611C36.1084 16.34 36.0431 16.3179 35.9866 16.297C35.9299 16.2759 35.893 16.2595 35.8448 16.2439C35.7803 16.2234 35.7141 16.2087 35.6482 16.1919C35.605 16.1814 35.5638 16.1674 35.5202 16.1582C35.4506 16.1435 35.3791 16.1354 35.3083 16.1247C35.2663 16.119 35.2262 16.1095 35.1842 16.1055C35.0708 16.0939 34.9576 16.0874 34.8386 16.0874C32.9615 16.0893 31.4404 17.6551 31.4385 19.5872H26.9035V13.7549H33.1367C33.287 13.7549 33.4312 13.6934 33.5372 13.584L35.0067 12.0715C35.6235 12.3736 36.2232 12.7113 36.8031 13.083C36.87 13.126 36.9447 13.1542 37.0229 13.1658L40.5034 13.6773V14.3383Z" fill="#009DFE"/>
<path fill-rule="evenodd" clip-rule="evenodd" d="M45.6367 1.08887H3.63672C2.53215 1.08887 1.63672 1.9843 1.63672 3.08887V28.0889C1.63672 29.1934 2.53215 30.0889 3.63672 30.0889H13.6367V31.0889H3.63672C1.97986 31.0889 0.636719 29.7457 0.636719 28.0889V3.08887C0.636719 1.43201 1.97986 0.0888672 3.63672 0.0888672H45.6367C47.2936 0.0888672 48.6367 1.43201 48.6367 3.08887V28.0889C48.6367 29.7457 47.2936 31.0889 45.6367 31.0889H37.6367V30.0889H45.6367C46.7413 30.0889 47.6367 29.1934 47.6367 28.0889V3.08887C47.6367 1.9843 46.7413 1.08887 45.6367 1.08887ZM37.6367 29.0889H43.6367C45.2936 29.0889 46.6367 27.7457 46.6367 26.0889V5.08887C46.6367 3.43201 45.2936 2.08887 43.6367 2.08887H5.63672C3.97986 2.08887 2.63672 3.43201 2.63672 5.08887V26.0889C2.63672 27.7457 3.97986 29.0889 5.63672 29.0889H13.6367V28.0889H5.63672C4.53215 28.0889 3.63672 27.1934 3.63672 26.0889V5.08887C3.63672 3.9843 4.53215 3.08887 5.63672 3.08887H43.6367C44.7413 3.08887 45.6367 3.9843 45.6367 5.08887V26.0889C45.6367 27.1934 44.7413 28.0889 43.6367 28.0889H37.6367V29.0889Z" fill="#009DFE"/>
<path d="M27.7096 36.3389H22.5638C21.3628 36.3389 20.3867 35.3627 20.3867 34.1618V29.016C20.3867 27.815 21.3628 26.8389 22.5638 26.8389H27.7096C28.9106 26.8389 29.8867 27.815 29.8867 29.016V34.1618C29.8867 35.3627 28.9106 36.3389 27.7096 36.3389ZM22.5638 28.0264C22.0183 28.0264 21.5742 28.4705 21.5742 29.016V34.1618C21.5742 34.7072 22.0183 35.1514 22.5638 35.1514H27.7096C28.2551 35.1514 28.6992 34.7072 28.6992 34.1618V29.016C28.6992 28.4705 28.2551 28.0264 27.7096 28.0264H22.5638Z" fill="#009DFE"/>
<path d="M27.5117 38.9121C27.184 38.9121 26.918 38.6461 26.918 38.3184V35.9434C26.918 35.6156 27.184 35.3496 27.5117 35.3496C27.8395 35.3496 28.1055 35.6156 28.1055 35.9434V38.3184C28.1055 38.6461 27.8395 38.9121 27.5117 38.9121Z" fill="#009DFE"/>
<path d="M27.513 41.0886C26.6398 41.0886 25.9297 40.3784 25.9297 39.5052C25.9297 38.632 26.6398 37.9219 27.513 37.9219C28.3862 37.9219 29.0963 38.632 29.0963 39.5052C29.0963 40.3784 28.3862 41.0886 27.513 41.0886ZM27.513 39.1094C27.2953 39.1094 27.1172 39.2867 27.1172 39.5052C27.1172 39.7237 27.2953 39.9011 27.513 39.9011C27.7307 39.9011 27.9089 39.7237 27.9089 39.5052C27.9089 39.2867 27.7307 39.1094 27.513 39.1094Z" fill="#009DFE"/>
<path d="M22.7617 38.9121C22.434 38.9121 22.168 38.6461 22.168 38.3184V35.9434C22.168 35.6156 22.434 35.3496 22.7617 35.3496C23.0895 35.3496 23.3555 35.6156 23.3555 35.9434V38.3184C23.3555 38.6461 23.0895 38.9121 22.7617 38.9121Z" fill="#009DFE"/>
<path d="M22.763 41.0886C21.8898 41.0886 21.1797 40.3784 21.1797 39.5052C21.1797 38.632 21.8898 37.9219 22.763 37.9219C23.6362 37.9219 24.3463 38.632 24.3463 39.5052C24.3463 40.3784 23.6362 41.0886 22.763 41.0886ZM22.763 39.1094C22.5453 39.1094 22.3672 39.2867 22.3672 39.5052C22.3672 39.7237 22.5453 39.9011 22.763 39.9011C22.9807 39.9011 23.1589 39.7237 23.1589 39.5052C23.1589 39.2867 22.9807 39.1094 22.763 39.1094Z" fill="#009DFE"/>
<path d="M22.7617 27.8281C22.434 27.8281 22.168 27.5621 22.168 27.2344V24.8594C22.168 24.5316 22.434 24.2656 22.7617 24.2656C23.0895 24.2656 23.3555 24.5316 23.3555 24.8594V27.2344C23.3555 27.5621 23.0895 27.8281 22.7617 27.8281Z" fill="#009DFE"/>
<path d="M22.763 25.2555C21.8898 25.2555 21.1797 24.5454 21.1797 23.6722C21.1797 22.799 21.8898 22.0889 22.763 22.0889C23.6362 22.0889 24.3463 22.799 24.3463 23.6722C24.3463 24.5454 23.6362 25.2555 22.763 25.2555ZM22.763 23.2764C22.5453 23.2764 22.3672 23.4537 22.3672 23.6722C22.3672 23.8907 22.5453 24.068 22.763 24.068C22.9807 24.068 23.1589 23.8907 23.1589 23.6722C23.1589 23.4537 22.9807 23.2764 22.763 23.2764Z" fill="#009DFE"/>
<path d="M27.5117 27.8281C27.184 27.8281 26.918 27.5621 26.918 27.2344V24.8594C26.918 24.5316 27.184 24.2656 27.5117 24.2656C27.8395 24.2656 28.1055 24.5316 28.1055 24.8594V27.2344C28.1055 27.5621 27.8395 27.8281 27.5117 27.8281Z" fill="#009DFE"/>
<path d="M27.513 25.2555C26.6398 25.2555 25.9297 24.5454 25.9297 23.6722C25.9297 22.799 26.6398 22.0889 27.513 22.0889C28.3862 22.0889 29.0963 22.799 29.0963 23.6722C29.0963 24.5454 28.3862 25.2555 27.513 25.2555ZM27.513 23.2764C27.2953 23.2764 27.1172 23.4537 27.1172 23.6722C27.1172 23.8907 27.2953 24.068 27.513 24.068C27.7307 24.068 27.9089 23.8907 27.9089 23.6722C27.9089 23.4537 27.7307 23.2764 27.513 23.2764Z" fill="#009DFE"/>
<path d="M20.7812 34.5576H18.4062C18.0785 34.5576 17.8125 34.2916 17.8125 33.9639C17.8125 33.6361 18.0785 33.3701 18.4062 33.3701H20.7812C21.109 33.3701 21.375 33.6361 21.375 33.9639C21.375 34.2916 21.109 34.5576 20.7812 34.5576Z" fill="#009DFE"/>
<path d="M17.2201 35.5475C16.3468 35.5475 15.6367 34.8374 15.6367 33.9642C15.6367 33.091 16.3468 32.3809 17.2201 32.3809C18.0933 32.3809 18.8034 33.091 18.8034 33.9642C18.8034 34.8374 18.0933 35.5475 17.2201 35.5475ZM17.2201 33.5684C17.0023 33.5684 16.8242 33.7457 16.8242 33.9642C16.8242 34.1827 17.0023 34.36 17.2201 34.36C17.4378 34.36 17.6159 34.1827 17.6159 33.9642C17.6159 33.7457 17.4378 33.5684 17.2201 33.5684Z" fill="#009DFE"/>
<path d="M20.7812 29.8076H18.4062C18.0785 29.8076 17.8125 29.5416 17.8125 29.2139C17.8125 28.8861 18.0785 28.6201 18.4062 28.6201H20.7812C21.109 28.6201 21.375 28.8861 21.375 29.2139C21.375 29.5416 21.109 29.8076 20.7812 29.8076Z" fill="#009DFE"/>
<path d="M17.2201 30.7975C16.3468 30.7975 15.6367 30.0874 15.6367 29.2142C15.6367 28.341 16.3468 27.6309 17.2201 27.6309C18.0933 27.6309 18.8034 28.341 18.8034 29.2142C18.8034 30.0874 18.0933 30.7975 17.2201 30.7975ZM17.2201 28.8184C17.0023 28.8184 16.8242 28.9957 16.8242 29.2142C16.8242 29.4327 17.0023 29.61 17.2201 29.61C17.4378 29.61 17.6159 29.4327 17.6159 29.2142C17.6159 28.9957 17.4378 28.8184 17.2201 28.8184Z" fill="#009DFE"/>
<path d="M31.8672 29.8076H29.4922C29.1644 29.8076 28.8984 29.5416 28.8984 29.2139C28.8984 28.8861 29.1644 28.6201 29.4922 28.6201H31.8672C32.1949 28.6201 32.4609 28.8861 32.4609 29.2139C32.4609 29.5416 32.1949 29.8076 31.8672 29.8076Z" fill="#009DFE"/>
<path d="M33.0521 30.7975C32.1789 30.7975 31.4688 30.0874 31.4688 29.2142C31.4688 28.341 32.1789 27.6309 33.0521 27.6309C33.9253 27.6309 34.6354 28.341 34.6354 29.2142C34.6354 30.0874 33.9253 30.7975 33.0521 30.7975ZM33.0521 28.8184C32.8344 28.8184 32.6563 28.9957 32.6563 29.2142C32.6563 29.4327 32.8344 29.61 33.0521 29.61C33.2698 29.61 33.4479 29.4327 33.4479 29.2142C33.4479 28.9957 33.2698 28.8184 33.0521 28.8184Z" fill="#009DFE"/>
<path d="M31.8672 34.5576H29.4922C29.1644 34.5576 28.8984 34.2916 28.8984 33.9639C28.8984 33.6361 29.1644 33.3701 29.4922 33.3701H31.8672C32.1949 33.3701 32.4609 33.6361 32.4609 33.9639C32.4609 34.2916 32.1949 34.5576 31.8672 34.5576Z" fill="#009DFE"/>
<path d="M33.0521 35.5475C32.1789 35.5475 31.4688 34.8374 31.4688 33.9642C31.4688 33.091 32.1789 32.3809 33.0521 32.3809C33.9253 32.3809 34.6354 33.091 34.6354 33.9642C34.6354 34.8374 33.9253 35.5475 33.0521 35.5475ZM33.0521 33.5684C32.8344 33.5684 32.6563 33.7457 32.6563 33.9642C32.6563 34.1827 32.8344 34.36 33.0521 34.36C33.2698 34.36 33.4479 34.1827 33.4479 33.9642C33.4479 33.7457 33.2698 33.5684 33.0521 33.5684Z" fill="#009DFE"/>
</svg>
