<svg width="45" height="44" viewBox="0 0 45 44" fill="none" xmlns="http://www.w3.org/2000/svg">
<g clip-path="url(#clip0)">
<path d="M13.822 37.5062C11.7021 36.5137 9.8159 35.0844 8.28704 33.312L9.76802 32.3805C9.85334 32.3269 9.92083 32.2491 9.96196 32.1571C10.0031 32.0651 10.016 31.963 9.99911 31.8637C9.9822 31.7643 9.9362 31.6723 9.86694 31.5991C9.79768 31.5259 9.70827 31.4749 9.61002 31.4525L6.29876 30.6983C6.16703 30.6683 6.02877 30.6918 5.9144 30.7637C5.80002 30.8357 5.71891 30.9501 5.68889 31.0818L4.9346 34.393C4.91222 34.4913 4.91947 34.5939 4.95544 34.6881C4.99141 34.7822 5.05447 34.8635 5.13667 34.9218C5.21886 34.98 5.31648 35.0126 5.41719 35.0154C5.5179 35.0182 5.61718 34.9911 5.70247 34.9374L7.41465 33.8607C9.05524 35.7959 11.094 37.3544 13.3919 38.4297C13.5142 38.4857 13.6537 38.4911 13.78 38.4446C13.9062 38.3982 14.009 38.3036 14.0658 38.1817C14.1226 38.0598 14.1289 37.9203 14.0832 37.7938C14.0376 37.6672 13.9438 37.5638 13.8222 37.5062H13.822ZM6.20103 33.4205L6.56909 31.8051L8.18456 32.1731L6.20103 33.4205Z" fill="#009DFE"/>
<path d="M39.6445 29.9357C39.5268 29.8694 39.3875 29.8526 39.2574 29.8889C39.1273 29.9253 39.0169 30.0118 38.9506 30.1295C37.6516 32.4291 35.8227 34.3856 33.6159 35.8367L32.3848 34.2466C32.3232 34.1668 32.2392 34.1071 32.1437 34.0751C32.0481 34.043 31.9451 34.0401 31.8479 34.0666C31.7506 34.0931 31.6634 34.1478 31.5972 34.2239C31.5311 34.3 31.489 34.394 31.4763 34.494L31.0471 37.8628C31.0386 37.9292 31.0433 37.9966 31.0609 38.0611C31.0785 38.1257 31.1086 38.1862 31.1495 38.2391C31.1905 38.292 31.2415 38.3363 31.2995 38.3695C31.3576 38.4027 31.4217 38.4242 31.4881 38.4326L34.857 38.8619C34.8784 38.8646 34.8999 38.866 34.9215 38.866C35.0168 38.8659 35.1101 38.8392 35.1909 38.7888C35.2718 38.7384 35.3368 38.6663 35.3788 38.5808C35.4207 38.4953 35.4378 38.3997 35.4282 38.3049C35.4185 38.2102 35.3825 38.12 35.3242 38.0447L34.2401 36.6438C36.5537 35.1078 38.4717 33.047 39.8377 30.6292C39.9039 30.5116 39.9208 30.3725 39.8846 30.2424C39.8483 30.1124 39.762 30.0021 39.6445 29.9357ZM32.1228 37.4864L32.3323 35.8427L33.7664 37.6957L32.1228 37.4864Z" fill="#009DFE"/>
<path d="M22.2999 11.1053H22.316C23.7008 11.1032 25.0281 10.551 26.0059 9.57027C26.9836 8.58952 27.5317 7.26054 27.5296 5.87569C27.5274 4.49084 26.9753 3.16355 25.9945 2.18581C25.0138 1.20808 23.6848 0.659988 22.2999 0.662116H22.2839C20.899 0.664244 19.5718 1.21642 18.594 2.19716C17.6163 3.1779 17.0682 4.50688 17.0703 5.89174C17.0724 7.27659 17.6246 8.60388 18.6054 9.58161C19.5861 10.5593 20.9151 11.1074 22.2999 11.1053ZM24.2527 9.59283C23.6573 9.91658 22.9904 10.0863 22.3127 10.0865H22.2999C21.6177 10.0869 20.9463 9.91619 20.3472 9.59003V8.56914C20.344 8.42406 20.3699 8.27981 20.4232 8.14484C20.4765 8.00987 20.5562 7.88689 20.6576 7.78309C20.759 7.67929 20.8801 7.59676 21.0138 7.54033C21.1475 7.4839 21.2911 7.4547 21.4362 7.45444H23.1637C23.3088 7.4547 23.4524 7.4839 23.5861 7.54033C23.7198 7.59676 23.8409 7.67929 23.9423 7.78309C24.0437 7.88689 24.1234 8.00987 24.1767 8.14484C24.23 8.27981 24.2559 8.42406 24.2527 8.56914V9.59283ZM21.366 4.91462V4.50708C21.366 4.25938 21.4644 4.02183 21.6395 3.84668C21.8147 3.67153 22.0522 3.57313 22.2999 3.57313C22.5476 3.57313 22.7852 3.67153 22.9603 3.84668C23.1355 4.02183 23.2339 4.25938 23.2339 4.50708V4.91462C23.2339 5.16232 23.1355 5.39987 22.9603 5.57502C22.7852 5.75016 22.5476 5.84856 22.2999 5.84856C22.0522 5.84856 21.8147 5.75016 21.6395 5.57502C21.4644 5.39987 21.366 5.16232 21.366 4.91462ZM22.2872 1.68096H22.2999C23.4112 1.6817 24.4768 2.1233 25.2629 2.90884C26.049 3.69438 26.4913 4.75969 26.4928 5.87098C26.4957 6.42044 26.3892 6.96498 26.1795 7.47288C25.9699 7.98077 25.6612 8.44186 25.2716 8.82929V8.56914C25.2719 8.06502 25.0939 7.57703 24.7692 7.19142C24.4445 6.80581 23.9939 6.54741 23.4971 6.46191C23.7317 6.27781 23.9216 6.04296 24.0525 5.77498C24.1833 5.50699 24.2518 5.21285 24.2527 4.91462V4.50708C24.2527 3.98917 24.047 3.49247 23.6808 3.12625C23.3146 2.76003 22.8179 2.55429 22.2999 2.55429C21.782 2.55429 21.2853 2.76003 20.9191 3.12625C20.5529 3.49247 20.3472 3.98917 20.3472 4.50708V4.91462C20.3481 5.21285 20.4165 5.50699 20.5474 5.77498C20.6783 6.04296 20.8682 6.27781 21.1028 6.46191C20.606 6.54741 20.1554 6.80581 19.8307 7.19142C19.5059 7.57703 19.328 8.06502 19.3283 8.56914V8.82615C18.9405 8.44327 18.6328 7.98705 18.4231 7.48406C18.2135 6.98108 18.106 6.44139 18.107 5.89645C18.1043 5.34509 18.2104 4.79862 18.4191 4.28829C18.6278 3.77795 18.9351 3.31376 19.3233 2.92226C19.7116 2.53075 20.1732 2.21961 20.6817 2.00662C21.1903 1.79363 21.7358 1.68297 22.2872 1.68096Z" fill="#009DFE"/>
<path d="M22.2999 33.0098H22.2839C20.899 33.0119 19.5718 33.5641 18.594 34.5448C17.6163 35.5256 17.0682 36.8545 17.0703 38.2394C17.0724 39.6242 17.6246 40.9515 18.6054 41.9293C19.5861 42.907 20.9151 43.4551 22.2999 43.453H22.316C23.7008 43.4508 25.0281 42.8987 26.0059 41.9179C26.9836 40.9372 27.5317 39.6082 27.5296 38.2233C27.5274 36.8385 26.9753 35.5112 25.9945 34.5335C25.0138 33.5557 23.6848 33.0076 22.2999 33.0098ZM24.2527 41.9397C23.6535 42.2657 22.9822 42.4366 22.3001 42.4368C21.6179 42.4369 20.9465 42.2664 20.3472 41.9407V40.9063C20.3443 40.7618 20.3704 40.6182 20.4239 40.4839C20.4775 40.3497 20.5573 40.2275 20.6588 40.1246C20.7603 40.0218 20.8814 39.9403 21.0149 39.8849C21.1485 39.8296 21.2917 39.8016 21.4362 39.8025H23.1637C23.3082 39.8016 23.4514 39.8296 23.5849 39.8849C23.7185 39.9403 23.8395 40.0218 23.941 40.1246C24.0426 40.2275 24.1224 40.3497 24.176 40.4839C24.2295 40.6182 24.2556 40.7618 24.2527 40.9063V41.9397ZM21.366 37.2517V36.8442C21.366 36.5965 21.4644 36.359 21.6395 36.1838C21.8147 36.0087 22.0522 35.9103 22.2999 35.9103C22.5476 35.9103 22.7852 36.0087 22.9603 36.1838C23.1355 36.359 23.2339 36.5965 23.2339 36.8442V37.2517C23.2339 37.4994 23.1355 37.737 22.9603 37.9121C22.7852 38.0873 22.5476 38.1857 22.2999 38.1857C22.0522 38.1857 21.8147 38.0873 21.6395 37.9121C21.4644 37.737 21.366 37.4994 21.366 37.2517ZM25.2716 41.1763V40.9063C25.2719 40.4021 25.0939 39.9141 24.7692 39.5285C24.4445 39.1429 23.9939 38.8845 23.4971 38.799C23.7317 38.6149 23.9216 38.3801 24.0525 38.1121C24.1833 37.8441 24.2518 37.55 24.2527 37.2517V36.8442C24.2527 36.3263 24.047 35.8296 23.6808 35.4634C23.3146 35.0972 22.8179 34.8914 22.2999 34.8914C21.782 34.8914 21.2853 35.0972 20.9191 35.4634C20.5529 35.8296 20.3472 36.3263 20.3472 36.8442V37.2517C20.3481 37.55 20.4165 37.8441 20.5474 38.1121C20.6783 38.3801 20.8682 38.6149 21.1028 38.799C20.606 38.8845 20.1554 39.1429 19.8307 39.5285C19.5059 39.9141 19.328 40.4021 19.3283 40.9063V41.1757C18.9406 40.7924 18.6329 40.3358 18.4233 39.8325C18.2136 39.3292 18.1061 38.7893 18.107 38.2441C18.1037 37.6926 18.2094 37.1459 18.4179 36.6353C18.6264 36.1247 18.9337 35.6602 19.322 35.2686C19.7104 34.877 20.1722 34.5659 20.681 34.3531C21.1899 34.1403 21.7357 34.03 22.2872 34.0286H22.2999C23.4114 34.0297 24.477 34.4715 25.2631 35.2573C26.0491 36.0431 26.4913 37.1085 26.4928 38.22C26.4957 38.7691 26.3892 39.3134 26.1796 39.821C25.9699 40.3285 25.6612 40.7893 25.2716 41.1763Z" fill="#009DFE"/>
<path d="M38.4655 16.7939H38.4494C37.7609 16.7983 37.08 16.9394 36.4464 17.2089C35.8127 17.4784 35.2389 17.871 34.7582 18.364C34.2723 18.8551 33.888 19.4372 33.6272 20.077C33.3664 20.7167 33.2343 21.4016 33.2384 22.0925C33.2469 24.9693 35.5902 27.322 38.465 27.322H38.481C39.1696 27.3177 39.8504 27.1766 40.4841 26.9071C41.1177 26.6376 41.6916 26.245 42.1723 25.752C42.6582 25.2609 43.0425 24.6788 43.3033 24.039C43.5641 23.3993 43.6962 22.7144 43.6921 22.0235C43.6836 19.1467 41.3403 16.7939 38.4655 16.7939ZM40.4657 25.7683C39.8506 26.0932 39.1653 26.2624 38.4696 26.2612C37.774 26.26 37.0892 26.0883 36.4753 25.7613V24.7382C36.4759 24.4373 36.594 24.1485 36.8043 23.9334C37.0147 23.7182 37.3007 23.5937 37.6015 23.5863H39.329C39.6308 23.5933 39.9182 23.7174 40.1303 23.9324C40.3424 24.1473 40.4627 24.4362 40.4657 24.7382V25.7683ZM37.4941 21.0834V20.6758C37.4941 20.4169 37.597 20.1685 37.7801 19.9854C37.9632 19.8023 38.2115 19.6994 38.4705 19.6994C38.7295 19.6994 38.9778 19.8023 39.1609 19.9854C39.344 20.1685 39.4469 20.4169 39.4469 20.6758V21.0834C39.4469 21.3423 39.344 21.5907 39.1609 21.7738C38.9778 21.9569 38.7295 22.0598 38.4705 22.0598C38.2115 22.0598 37.9632 21.9569 37.7801 21.7738C37.597 21.5907 37.4941 21.3423 37.4941 21.0834ZM41.4846 25.0042V24.7383C41.4849 24.2342 41.3069 23.7462 40.9822 23.3606C40.6575 22.975 40.2069 22.7167 39.7101 22.6312C39.9447 22.4471 40.1346 22.2122 40.2655 21.9442C40.3964 21.6761 40.4648 21.382 40.4657 21.0837V20.6762C40.4657 20.147 40.2555 19.6395 39.8813 19.2653C39.5072 18.8911 38.9997 18.6809 38.4705 18.6809C37.9413 18.6809 37.4338 18.8911 37.0596 19.2653C36.6855 19.6395 36.4753 20.147 36.4753 20.6762V21.0837C36.4762 21.382 36.5446 21.6761 36.6755 21.9442C36.8064 22.2122 36.9963 22.4471 37.2309 22.6312C36.7341 22.7167 36.2836 22.975 35.9588 23.3606C35.6341 23.7461 35.4562 24.2341 35.4564 24.7382V24.9947C35.0714 24.6099 34.7668 24.1525 34.5603 23.6489C34.3538 23.1453 34.2495 22.6057 34.2537 22.0614C34.2521 20.9427 34.6925 19.8687 35.4788 19.0731C36.2651 18.2774 37.3339 17.8245 38.4525 17.8128H38.4654C39.5815 17.8178 40.6504 18.2632 41.44 19.052C42.2295 19.8409 42.6758 20.9095 42.6817 22.0256C42.6836 23.136 42.2544 24.2038 41.4846 25.0042Z" fill="#009DFE"/>
<path d="M6.14509 27.322C6.83366 27.3177 7.5145 27.1766 8.14815 26.9071C8.78179 26.6376 9.35563 26.245 9.83638 25.752C10.3223 25.2609 10.7066 24.6788 10.9674 24.039C11.2281 23.3993 11.3602 22.7144 11.3562 22.0235C11.3477 19.1467 9.00432 16.7939 6.12955 16.7939H6.1135C5.42494 16.7983 4.74409 16.9394 4.11045 17.2089C3.4768 17.4784 2.90297 17.871 2.42222 18.364C1.93633 18.8551 1.55202 19.4372 1.29124 20.077C1.03047 20.7167 0.898347 21.4016 0.902436 22.0925C0.910926 24.9693 3.25428 27.322 6.12904 27.322H6.14509ZM3.10994 24.7382V25.026C2.72598 24.6381 2.42253 24.1781 2.21707 23.6725C2.01161 23.1669 1.9082 22.6256 1.91279 22.0798C1.90777 20.9544 2.34935 19.8729 3.14068 19.0727C3.52878 18.6764 3.99163 18.361 4.50244 18.1447C5.01325 17.9284 5.56187 17.8156 6.11656 17.8128H6.12947C8.44378 17.8128 10.3339 19.7201 10.3407 22.036C10.3406 23.1502 9.90967 24.2212 9.13812 25.025V24.7382C9.13842 24.234 8.96047 23.7461 8.63575 23.3605C8.31103 22.9749 7.86044 22.7165 7.36363 22.631C7.59827 22.4469 7.78815 22.212 7.91902 21.944C8.04989 21.676 8.11836 21.3818 8.11928 21.0835V20.676C8.11928 20.1468 7.90906 19.6393 7.53488 19.2652C7.1607 18.891 6.6532 18.6808 6.12403 18.6808C5.59486 18.6808 5.08736 18.891 4.71318 19.2652C4.339 19.6393 4.12879 20.1468 4.12879 20.676V21.0835C4.12971 21.3818 4.19817 21.676 4.32904 21.944C4.45992 22.212 4.6498 22.4469 4.88443 22.631C4.38762 22.7165 3.93703 22.9749 3.61231 23.3605C3.28759 23.7461 3.10965 24.234 3.10994 24.7382ZM7.10043 20.676V21.0835C7.10043 21.3425 6.99756 21.5909 6.81445 21.774C6.63134 21.9571 6.38299 22.0599 6.12403 22.0599C5.86508 22.0599 5.61673 21.9571 5.43362 21.774C5.25051 21.5909 5.14764 21.3425 5.14764 21.0835V20.676C5.14764 20.4171 5.25051 20.1687 5.43362 19.9856C5.61673 19.8025 5.86508 19.6996 6.12403 19.6996C6.38299 19.6996 6.63134 19.8025 6.81445 19.9856C6.99756 20.1687 7.10043 20.4171 7.10043 20.676ZM4.12879 24.7382C4.13188 24.4362 4.25217 24.1473 4.46427 23.9324C4.67638 23.7174 4.96369 23.5933 5.26557 23.5863H6.99302C7.29383 23.5937 7.57986 23.7182 7.79021 23.9334C8.00057 24.1485 8.11864 24.4373 8.11928 24.7382V25.7971C7.51314 26.1291 6.83315 26.3032 6.14203 26.3032H6.12913C5.43093 26.3032 4.74365 26.13 4.12879 25.7992V24.7382Z" fill="#009DFE"/>
<path d="M36.3108 10.8034L34.8298 11.7349C34.7445 11.7885 34.677 11.8662 34.6358 11.9582C34.5947 12.0502 34.5818 12.1524 34.5987 12.2517C34.6156 12.351 34.6616 12.4431 34.7309 12.5163C34.8001 12.5895 34.8895 12.6405 34.9878 12.6629L38.2991 13.4171C38.3643 13.432 38.4318 13.4339 38.4978 13.4227C38.5637 13.4115 38.6269 13.3874 38.6835 13.3518C38.7402 13.3162 38.7892 13.2697 38.8279 13.2151C38.8666 13.1605 38.8941 13.0988 38.9089 13.0336L39.6632 9.72233C39.6856 9.62409 39.6783 9.52143 39.6424 9.42732C39.6064 9.3332 39.5433 9.25187 39.4611 9.1936C39.379 9.13533 39.2813 9.10274 39.1806 9.09995C39.0799 9.09716 38.9806 9.12429 38.8953 9.17792L37.1832 10.2549C35.5426 8.31973 33.5038 6.76127 31.2059 5.68591C31.0836 5.62989 30.9441 5.62454 30.8178 5.671C30.6916 5.71747 30.5889 5.81198 30.532 5.93392C30.4752 6.05586 30.4689 6.19532 30.5146 6.32187C30.5602 6.44842 30.654 6.55179 30.7756 6.60941C32.8955 7.60181 34.7818 9.03104 36.3108 10.8034ZM38.3968 10.6952L38.0288 12.3105L36.4132 11.9426L38.3968 10.6952Z" fill="#009DFE"/>
<path d="M4.95001 14.1803C5.06773 14.2466 5.20695 14.2634 5.33707 14.227C5.46719 14.1907 5.57754 14.1041 5.64385 13.9864C6.94289 11.6869 8.77173 9.73032 10.9785 8.27927L12.2096 9.86935C12.2713 9.94912 12.3552 10.0088 12.4508 10.0409C12.5464 10.0729 12.6493 10.0759 12.7466 10.0494C12.8439 10.0229 12.9311 9.96814 12.9972 9.89205C13.0634 9.81596 13.1054 9.72195 13.1181 9.62194L13.5474 6.25312C13.5559 6.18675 13.5512 6.11936 13.5336 6.05481C13.516 5.99025 13.4859 5.92979 13.4449 5.87688C13.404 5.82397 13.353 5.77964 13.2949 5.74643C13.2368 5.71322 13.1728 5.69178 13.1064 5.68333L9.73749 5.25405C9.63756 5.24137 9.53611 5.2586 9.44596 5.30357C9.35582 5.34853 9.28103 5.41922 9.23105 5.50668C9.18107 5.59414 9.15815 5.69446 9.16517 5.79495C9.1722 5.89544 9.20886 5.9916 9.27052 6.07126L10.3546 7.47217C8.04102 9.00815 6.12308 11.069 4.75702 13.4868C4.69077 13.6044 4.67387 13.7434 4.71006 13.8734C4.74624 14.0035 4.83254 14.1138 4.95001 14.1803ZM12.4717 6.62958L12.2623 8.27324L10.8281 6.42013L12.4717 6.62958Z" fill="#009DFE"/>
<path d="M26.9691 14.518C26.3389 13.8983 25.5918 13.4101 24.7712 13.082C23.9506 12.7538 23.0729 12.5921 22.1893 12.6063C21.3056 12.6206 20.4336 12.8105 19.624 13.1649C18.8144 13.5194 18.0834 14.0313 17.4735 14.671C16.8637 15.3107 16.3872 16.0653 16.0717 16.8908C15.7563 17.7164 15.6082 18.5965 15.6361 19.4798C15.6641 20.3632 15.8674 21.2322 16.2344 22.0362C16.6013 22.8402 17.1245 23.5632 17.7736 24.163C18.1598 24.5245 18.467 24.962 18.676 25.448C18.8849 25.934 18.9911 26.4579 18.9877 26.9869V30.8959C18.9904 30.9867 19.0114 31.0759 19.0493 31.1584C19.0872 31.2409 19.1414 31.3149 19.2084 31.376C19.3464 31.5038 19.5291 31.5722 19.717 31.5667H24.88C25.0682 31.5725 25.2512 31.5041 25.3895 31.3764C25.4566 31.3152 25.5107 31.2411 25.5486 31.1585C25.5866 31.076 25.6075 30.9866 25.6102 30.8958V26.9846C25.6096 26.4487 25.7201 25.9185 25.9348 25.4274C26.1494 24.9364 26.4636 24.4953 26.8574 24.1318C27.5153 23.5192 28.0421 22.7795 28.4057 21.9573C28.7692 21.1351 28.9621 20.2477 28.9725 19.3488C28.983 18.4499 28.8108 17.5582 28.4664 16.7278C28.1221 15.8975 27.6126 15.1456 26.9691 14.518ZM24.5914 30.5478H20.0065V29.8686H24.5914V30.5478ZM24.5914 28.8497H20.0065V28.1705H24.5914V28.8497ZM26.1451 23.3834C25.6511 23.843 25.2579 24.4001 24.9905 25.0195C24.723 25.639 24.5871 26.3072 24.5914 26.9818V27.1517H22.8084V20.9546C22.9964 20.9597 23.1751 21.038 23.3064 21.1727C23.4377 21.3075 23.5112 21.4881 23.5115 21.6763C23.5115 21.8114 23.5651 21.941 23.6607 22.0365C23.7562 22.132 23.8858 22.1857 24.0209 22.1857C24.156 22.1857 24.2856 22.132 24.3811 22.0365C24.4766 21.941 24.5303 21.8114 24.5303 21.6763C24.5299 21.2146 24.3463 20.772 24.0199 20.4455C23.6935 20.119 23.2509 19.9353 22.7892 19.9348H21.8087C21.3471 19.9353 20.9045 20.1189 20.5781 20.4454C20.2517 20.7718 20.0681 21.2143 20.0676 21.6759C20.0676 21.8111 20.1213 21.9406 20.2168 22.0362C20.3123 22.1317 20.4419 22.1854 20.577 22.1854C20.7121 22.1854 20.8417 22.1317 20.9372 22.0362C21.0328 21.9406 21.0864 21.8111 21.0864 21.6759C21.0867 21.4878 21.1602 21.3072 21.2915 21.1724C21.4228 21.0376 21.6015 20.9594 21.7895 20.9543V27.1517H20.0065V26.9883C20.0098 26.3181 19.8743 25.6544 19.6087 25.039C19.3431 24.4237 18.9531 23.8699 18.4632 23.4125C17.6284 22.6422 17.0456 21.6379 16.791 20.531C16.5363 19.4241 16.6216 18.2662 17.0358 17.2085C17.4499 16.1509 18.1737 15.2429 19.1123 14.6033C20.0509 13.9637 21.1607 13.6223 22.2965 13.6237H22.3506C23.8071 13.6358 25.2011 14.2176 26.2341 15.2446C27.2855 16.2766 27.9026 17.6499 27.9026 19.1117V19.1125C27.9406 19.9097 27.8029 20.7055 27.4991 21.4436C27.1954 22.1816 26.7332 22.8439 26.1451 23.3834Z" fill="#009DFE"/>
<path d="M19.3058 15.5175C19.1701 15.6258 19.0405 15.7413 18.9172 15.8634C18.4668 16.307 18.1095 16.8359 17.8661 17.4193C17.6228 18.0027 17.4983 18.6288 17.5 19.2609C17.5 19.396 17.5537 19.5256 17.6492 19.6212C17.7448 19.7167 17.8743 19.7704 18.0094 19.7704C18.1445 19.7704 18.2741 19.7167 18.3697 19.6212C18.4652 19.5256 18.5189 19.396 18.5189 19.2609C18.5175 18.7634 18.6155 18.2707 18.8071 17.8115C18.9987 17.3524 19.2799 16.9361 19.6344 16.5871C19.7318 16.4906 19.8342 16.3994 19.9413 16.3138C19.9936 16.2721 20.0372 16.2205 20.0695 16.1619C20.1019 16.1034 20.1223 16.039 20.1298 15.9725C20.1373 15.906 20.1316 15.8387 20.113 15.7744C20.0945 15.7102 20.0634 15.6502 20.0217 15.5979C19.98 15.5456 19.9284 15.502 19.8698 15.4697C19.8112 15.4374 19.7469 15.4169 19.6804 15.4094C19.6139 15.402 19.5466 15.4077 19.4823 15.4262C19.418 15.4448 19.358 15.4758 19.3058 15.5175Z" fill="#009DFE"/>
<path d="M21.5547 14.53C21.3175 14.5666 21.0834 14.621 20.8544 14.6927C20.7904 14.7125 20.731 14.7448 20.6795 14.7877C20.628 14.8306 20.5855 14.8832 20.5544 14.9426C20.5232 15.0019 20.5041 15.0668 20.4981 15.1335C20.4921 15.2003 20.4994 15.2675 20.5194 15.3315C20.5394 15.3954 20.5719 15.4548 20.6149 15.5061C20.6579 15.5575 20.7106 15.5999 20.77 15.6309C20.8294 15.6619 20.8944 15.6808 20.9611 15.6866C21.0279 15.6925 21.0951 15.6851 21.159 15.6649C21.3393 15.6085 21.5236 15.5657 21.7103 15.5369C21.8432 15.5156 21.9623 15.4425 22.0416 15.3337C22.1208 15.2249 22.1538 15.0891 22.1332 14.956C22.1126 14.823 22.0402 14.7035 21.9318 14.6236C21.8234 14.5438 21.6878 14.5101 21.5547 14.53Z" fill="#009DFE"/>
</g>
<defs>
<clipPath id="clip0">
<rect width="43.4709" height="43.4709" fill="white" transform="translate(0.5625 0.322266)"/>
</clipPath>
</defs>
</svg>
