<svg width="45" height="44" viewBox="0 0 45 44" fill="none" xmlns="http://www.w3.org/2000/svg">
<path d="M40.1903 0.323369H6.4268C6.41967 0.3232 6.41271 0.322266 6.40549 0.322266C6.39828 0.322266 6.39131 0.3232 6.38418 0.323369H5.21701C2.87671 0.323369 0.972656 2.22734 0.972656 4.56772V24.2615C0.972656 26.6018 2.87663 28.5058 5.21701 28.5058H19.4808V30.872C18.4928 31.2224 17.7831 32.1659 17.7831 33.2726C17.7831 34.6768 18.9254 35.8192 20.3297 35.8192C21.7339 35.8192 22.8763 34.6768 22.8763 33.2726C22.8763 32.166 22.1666 31.2224 21.1785 30.872V28.5058H25.2509V37.4559C23.8828 37.8295 22.8741 39.0826 22.8741 40.5674C22.8741 42.3461 24.3212 43.7931 26.0997 43.7931C27.8783 43.7931 29.3254 42.346 29.3254 40.5674C29.3254 39.0826 28.3166 37.8296 26.9486 37.4559V28.5058H40.1903C42.5306 28.5058 44.4347 26.6018 44.4347 24.2615V4.56772C44.4347 2.22726 42.5307 0.323369 40.1903 0.323369ZM20.3297 34.1214C19.8616 34.1214 19.4808 33.7407 19.4808 33.2726C19.4808 32.8045 19.8616 32.4237 20.3297 32.4237C20.7977 32.4237 21.1785 32.8045 21.1785 33.2726C21.1785 33.7407 20.7977 34.1214 20.3297 34.1214ZM18.8016 8.13293C18.8016 7.29042 19.4871 6.60499 20.3296 6.60499C21.1721 6.60499 21.8575 7.29042 21.8575 8.13293C21.8575 8.97543 21.1721 9.66086 20.3296 9.66086C19.4871 9.66086 18.8016 8.97543 18.8016 8.13293ZM27.6277 40.5674C27.6277 41.4099 26.9422 42.0954 26.0997 42.0954C25.2572 42.0954 24.5718 41.4099 24.5718 40.5674C24.5718 39.7249 25.2572 39.0395 26.0997 39.0395C26.9422 39.0395 27.6277 39.7249 27.6277 40.5674ZM42.7369 24.2615C42.7369 25.6657 41.5946 26.8081 40.1903 26.8081H39.8508V7.3254C39.8508 6.85665 39.4707 6.47653 39.0019 6.47653C38.5332 6.47653 38.1531 6.85665 38.1531 7.3254V26.8081H26.9486V19.38H31.6034C31.9538 20.368 32.8974 21.0777 34.004 21.0777C35.4082 21.0777 36.5506 19.9353 36.5506 18.5311C36.5506 17.1269 35.4082 15.9845 34.004 15.9845C32.8974 15.9845 31.9538 16.6942 31.6034 17.6822H26.9486V12.1852H29.9303C30.2807 13.1733 31.2242 13.883 32.3308 13.883C33.7351 13.883 34.8775 12.7406 34.8775 11.3364C34.8775 9.93213 33.7351 8.78974 32.3308 8.78974C31.2243 8.78974 30.2807 9.49945 29.9303 10.4875H26.0997C25.631 10.4875 25.2509 10.8676 25.2509 11.3364V26.8081H21.1785V11.2445C22.5466 10.8708 23.5553 9.61781 23.5553 8.13293C23.5553 6.35427 22.1082 4.90725 20.3297 4.90725C18.551 4.90725 17.104 6.35436 17.104 8.13293C17.104 9.61773 18.1128 10.8707 19.4808 11.2445V14.4243H16.5606C16.2102 13.4363 15.2667 12.7266 14.16 12.7266C12.7558 12.7266 11.6134 13.869 11.6134 15.2732C11.6134 16.6774 12.7558 17.8198 14.16 17.8198C15.2666 17.8198 16.2102 17.1101 16.5606 16.1221H19.4808V21.2055H13.6853C13.3349 20.2175 12.3914 19.5078 11.2848 19.5078C9.88053 19.5078 8.73815 20.6502 8.73815 22.0544C8.73815 23.4586 9.88053 24.601 11.2848 24.601C12.3913 24.601 13.3349 23.8913 13.6853 22.9033H19.4808V26.8081H5.21701C3.81278 26.8081 2.6704 25.6657 2.6704 24.2615V4.56772C2.6704 3.16349 3.81278 2.02111 5.21701 2.02111H5.55662L5.55654 21.5015C5.55654 21.9702 5.93665 22.3504 6.40541 22.3504C6.87416 22.3504 7.25428 21.9702 7.25428 21.5015L7.25436 2.02111H40.1903C41.5946 2.02111 42.7369 3.16349 42.7369 4.56772V24.2615ZM33.1551 18.531C33.1551 18.063 33.5359 17.6822 34.004 17.6822C34.472 17.6822 34.8528 18.063 34.8528 18.531C34.8528 18.9991 34.472 19.3799 34.004 19.3799C33.5359 19.3799 33.1551 18.9991 33.1551 18.531ZM31.4819 11.3364C31.4819 10.8683 31.8627 10.4875 32.3308 10.4875C32.7988 10.4875 33.1796 10.8683 33.1796 11.3364C33.1796 11.8044 32.7988 12.1852 32.3308 12.1852C31.8627 12.1852 31.4819 11.8044 31.4819 11.3364ZM15.0088 15.2732C15.0088 15.7413 14.628 16.1221 14.1599 16.1221C13.6919 16.1221 13.3111 15.7413 13.3111 15.2732C13.3111 14.8051 13.6919 14.4243 14.1599 14.4243C14.628 14.4243 15.0088 14.8051 15.0088 15.2732ZM12.1335 22.0544C12.1335 22.5225 11.7527 22.9033 11.2847 22.9033C10.8166 22.9033 10.4358 22.5225 10.4358 22.0544C10.4358 21.5863 10.8166 21.2055 11.2847 21.2055C11.7527 21.2055 12.1335 21.5863 12.1335 22.0544Z" fill="#009DFE"/>
</svg>
