<svg width="44" height="40" viewBox="0 0 44 40" fill="none" xmlns="http://www.w3.org/2000/svg">
<path d="M3.36681 39.3739H38.1435C39.7439 39.3739 41.0415 38.0763 41.0415 36.4759V34.3023C41.0415 33.902 40.7173 33.5778 40.317 33.5778H38.868V22.7101H37.419V33.5778H35.9699V23.4346H34.5209V33.5778H25.1877C24.4161 33.5753 23.7103 34.0122 23.3678 34.703C23.2689 34.902 23.0656 35.0272 22.8432 35.0268H18.6671C18.4447 35.0272 18.2414 34.902 18.1426 34.703C17.8 34.0122 17.0942 33.5753 16.3226 33.5778H6.98938V12.5669H20.7552V11.1179H6.26487C5.86457 11.1179 5.54035 11.4421 5.54035 11.8424V33.5778H4.09132V11.8424C4.09132 10.6422 5.06471 9.66885 6.26487 9.66885H20.7552V8.21982H6.26487C4.26521 8.22235 2.64483 9.84273 2.6423 11.8424V33.5778H1.19327C0.792974 33.5778 0.468754 33.902 0.468754 34.3023V36.4759C0.468754 38.0763 1.76636 39.3739 3.36681 39.3739ZM1.91778 35.0268H16.3226C16.545 35.0265 16.7482 35.1516 16.8471 35.3507C17.1896 36.0415 17.8955 36.4784 18.6671 36.4759H22.8432C23.6148 36.4784 24.3207 36.0415 24.6632 35.3507C24.7621 35.1516 24.9653 35.0265 25.1877 35.0268H39.5925V36.4759C39.5925 37.2763 38.9439 37.9249 38.1435 37.9249H3.36681C2.5664 37.9249 1.91778 37.2763 1.91778 36.4759V35.0268Z" fill="#009DFE"/>
<path d="M8.43843 14.016H9.88748V15.465H8.43843V14.016Z" fill="#009DFE"/>
<path d="M11.3365 14.016H12.7855V15.465H11.3365V14.016Z" fill="#009DFE"/>
<path d="M14.2345 14.016H15.6835V15.465H14.2345V14.016Z" fill="#009DFE"/>
<path d="M22.2042 18.363V16.914H9.16295C8.76265 16.914 8.43843 17.2382 8.43843 17.6385V21.9856C8.43843 22.3859 8.76265 22.7101 9.16295 22.7101H26.5513V21.2611H9.88746V18.363H22.2042Z" fill="#009DFE"/>
<path d="M8.43843 30.6797H13.5101V32.1287H8.43843V30.6797Z" fill="#009DFE"/>
<path d="M14.959 30.6797H20.0306V32.1287H14.959V30.6797Z" fill="#009DFE"/>
<path d="M21.4797 30.6797H26.5514V32.1287H21.4797V30.6797Z" fill="#009DFE"/>
<path d="M28.0003 30.6797H33.0719V32.1287H28.0003V30.6797Z" fill="#009DFE"/>
<path d="M20.0306 24.8836C20.0306 24.4833 19.7064 24.1591 19.3061 24.1591H15.6835C15.2832 24.1591 14.959 24.4833 14.959 24.8836V28.5062C14.959 28.9065 15.2832 29.2307 15.6835 29.2307H19.3061C19.7064 29.2307 20.0306 28.9065 20.0306 28.5062V24.8836ZM18.5816 27.7817H16.408V25.6081H18.5816V27.7817Z" fill="#009DFE"/>
<path d="M13.5101 24.8836C13.5101 24.4833 13.1858 24.1591 12.7855 24.1591H9.16295C8.76265 24.1591 8.43843 24.4833 8.43843 24.8836V28.5062C8.43843 28.9065 8.76265 29.2307 9.16295 29.2307H12.7855C13.1858 29.2307 13.5101 28.9065 13.5101 28.5062V24.8836ZM12.061 27.7817H9.88747V25.6081H12.061V27.7817Z" fill="#009DFE"/>
<path d="M32.3474 29.2307C32.7477 29.2307 33.0719 28.9065 33.0719 28.5062V24.8836C33.0719 24.4833 32.7477 24.1591 32.3474 24.1591H28.7248C28.3245 24.1591 28.0003 24.4833 28.0003 24.8836V28.5062C28.0003 28.9065 28.3245 29.2307 28.7248 29.2307H32.3474ZM29.4493 25.6081H31.6229V27.7817H29.4493V25.6081Z" fill="#009DFE"/>
<path d="M26.5514 24.8836C26.5514 24.4833 26.2271 24.1591 25.8268 24.1591H22.2042C21.8039 24.1591 21.4797 24.4833 21.4797 24.8836V28.5062C21.4797 28.9065 21.8039 29.2307 22.2042 29.2307H25.8268C26.2271 29.2307 26.5514 28.9065 26.5514 28.5062V24.8836ZM25.1023 27.7817H22.9288V25.6081H25.1023V27.7817Z" fill="#009DFE"/>
<path d="M33.0719 0.250122C27.0697 0.250122 22.2042 5.1156 22.2042 11.1178C22.2042 17.1201 27.0697 21.9855 33.0719 21.9855C39.0741 21.9855 43.9396 17.1201 43.9396 11.1178C43.9327 5.11849 39.0712 0.257005 33.0719 0.250122ZM33.0719 20.5365C27.8701 20.5365 23.6532 16.3197 23.6532 11.1178C23.6532 5.916 27.8701 1.69915 33.0719 1.69915C38.2737 1.69915 42.4906 5.916 42.4906 11.1178C42.4848 16.3171 38.2712 20.5307 33.0719 20.5365Z" fill="#009DFE"/>
<path d="M33.0719 6.0462C33.3932 6.04964 33.7131 6.08351 34.0282 6.14782L32.9574 6.82143L33.7297 8.04804L36.175 6.50844C36.3447 6.4014 36.4624 6.22878 36.5003 6.03171C36.5383 5.83446 36.4925 5.63069 36.3742 5.46876L34.5933 3.02353L33.4216 3.8761L34.0014 4.66763C32.128 4.38851 30.2262 4.94132 28.7945 6.18096C27.3624 7.42061 26.5431 9.22392 26.5513 11.1178C26.5485 12.458 26.961 13.7657 27.732 14.8615L28.9184 14.0289C27.8322 12.4797 27.6989 10.4552 28.5723 8.7769C29.4453 7.09874 31.18 6.04602 33.0719 6.0462Z" fill="#009DFE"/>
<path d="M37.1952 8.1229C38.2812 9.67155 38.4149 11.6966 37.5411 13.3749C36.6677 15.0531 34.9336 16.1058 33.0414 16.1052C32.7208 16.1016 32.4007 16.0677 32.0859 16.004L33.1562 15.3293L32.3841 14.1038L29.9388 15.6434C29.7691 15.7502 29.6514 15.9223 29.6135 16.1197C29.5758 16.3166 29.6211 16.5206 29.7392 16.683L31.5199 19.1283L32.6916 18.2746L32.112 17.4834C34.6844 17.8513 37.2298 16.657 38.5908 14.4436C39.9514 12.2298 39.8683 9.4196 38.3787 7.29025L37.1952 8.1229Z" fill="#009DFE"/>
</svg>
