<svg width="44" height="44" viewBox="0 0 44 44" fill="none" xmlns="http://www.w3.org/2000/svg">
<g clip-path="url(#clip0)">
<path d="M43.2151 2.94696C43.2141 2.94696 43.2132 2.94696 43.2122 2.94696H1.19322C0.79313 2.94696 0.46875 3.27134 0.46875 3.67143V39.8947C0.46875 40.2948 0.79313 40.6192 1.19322 40.6192H38.141C38.333 40.6187 38.5172 40.5425 38.6532 40.4069L43.7244 35.3357C43.785 35.2741 43.8341 35.2022 43.8693 35.1234C43.8795 35.1009 43.8853 35.0792 43.8932 35.056C43.9141 34.9952 43.9267 34.9319 43.9309 34.8677C43.9309 34.8524 43.9396 34.8387 43.9396 34.8235V3.67143C43.9396 3.27134 43.6152 2.94696 43.2151 2.94696ZM38.8654 38.1459V35.5479H41.4634L38.8654 38.1459ZM42.4878 34.099H38.141C37.7409 34.099 37.4165 34.4234 37.4165 34.8235V39.1703H1.91768V4.39589H42.4878V34.099Z" fill="#009DFE"/>
<path d="M39.5899 15.9873C39.99 15.9873 40.3144 15.6629 40.3144 15.2629V10.9161C40.3144 10.516 39.99 10.1916 39.5899 10.1916H30.8963C30.4962 10.1916 30.1718 10.516 30.1718 10.9161V12.365H27.274V10.9161C27.274 10.516 26.9496 10.1916 26.5495 10.1916H17.8559C17.4558 10.1916 17.1315 10.516 17.1315 10.9161V12.365H14.2336V10.9161C14.2336 10.516 13.9092 10.1916 13.5091 10.1916H4.81553C4.41544 10.1916 4.09106 10.516 4.09106 10.9161V15.2629C4.09106 15.6629 4.41544 15.9873 4.81553 15.9873H13.5091C13.9092 15.9873 14.2336 15.6629 14.2336 15.2629V13.8139H17.1315V15.2629C17.1315 15.6629 17.4558 15.9873 17.8559 15.9873H26.5495C26.9496 15.9873 27.274 15.6629 27.274 15.2629V13.8139H30.1718V15.2629C30.1718 15.6629 30.4962 15.9873 30.8963 15.9873H34.5186V20.3341H30.8963C30.4962 20.3341 30.1718 20.6585 30.1718 21.0586V22.5075H27.274V21.0586C27.274 20.6585 26.9496 20.3341 26.5495 20.3341H17.8559C17.4558 20.3341 17.1315 20.6585 17.1315 21.0586V22.5075H14.2336V21.0586C14.2336 20.6585 13.9092 20.3341 13.5091 20.3341H4.81553C4.41544 20.3341 4.09106 20.6585 4.09106 21.0586V25.4054C4.09106 25.8055 4.41544 26.1298 4.81553 26.1298H13.5091C13.9092 26.1298 14.2336 25.8055 14.2336 25.4054V23.9564H17.1315V25.4054C17.1315 25.8055 17.4558 26.1298 17.8559 26.1298H21.4782V30.4766H17.8559C17.4558 30.4766 17.1315 30.801 17.1315 31.2011V35.5479C17.1315 35.948 17.4558 36.2724 17.8559 36.2724H26.5495C26.9496 36.2724 27.274 35.948 27.274 35.5479V31.2011C27.274 30.801 26.9496 30.4766 26.5495 30.4766H22.9272V26.1298H26.5495C26.9496 26.1298 27.274 25.8055 27.274 25.4054V23.9564H30.1718V25.4054C30.1718 25.8055 30.4962 26.1298 30.8963 26.1298H34.5186V30.4766H30.8963C30.4962 30.4766 30.1718 30.801 30.1718 31.2011V35.5479C30.1718 35.948 30.4962 36.2724 30.8963 36.2724H35.9676V34.8234H31.6208V31.9256H38.8654V32.65H40.3144V31.2011C40.3144 30.801 39.99 30.4766 39.5899 30.4766H35.9676V26.1298H39.5899C39.99 26.1298 40.3144 25.8055 40.3144 25.4054V21.0586C40.3144 20.6585 39.99 20.3341 39.5899 20.3341H35.9676V15.9873H39.5899ZM12.7847 14.5384H5.54V11.6405H12.7847V14.5384ZM25.825 14.5384H18.5804V11.6405H25.825V14.5384ZM12.7847 24.6809H5.54V21.783H12.7847V24.6809ZM25.825 31.9256V34.8234H18.5804V31.9256H25.825ZM25.825 24.6809H18.5804V21.783H25.825V24.6809ZM38.8654 21.783V24.6809H31.6208V21.783H38.8654ZM31.6208 14.5384V11.6405H38.8654V14.5384H31.6208Z" fill="#009DFE"/>
<path d="M16.407 6.56927H14.9581V8.01821H16.407V6.56927Z" fill="#009DFE"/>
<path d="M25.1006 6.56927H17.856V8.01821H25.1006V6.56927Z" fill="#009DFE"/>
<path d="M29.4474 6.56927H26.5495V8.01821H29.4474V6.56927Z" fill="#009DFE"/>
</g>
<defs>
<clipPath id="clip0">
<rect width="43.4709" height="43.4709" fill="white" transform="translate(0.46875 0.0476074)"/>
</clipPath>
</defs>
</svg>
