<svg width="44" height="45" viewBox="0 0 44 45" fill="none" xmlns="http://www.w3.org/2000/svg">
<g clip-path="url(#clip0)">
<path d="M12.4685 14.4214H8.39312C8.01819 14.4214 7.71389 14.7257 7.71389 15.1006V19.176C7.71389 19.5509 8.01819 19.8552 8.39312 19.8552H12.4685C12.8435 19.8552 13.1477 19.5509 13.1477 19.176V16.3837L15.6276 14.2584L14.7433 13.2266L13.0105 14.7121C12.8869 14.5403 12.6961 14.4214 12.4685 14.4214ZM11.7893 18.4968H10.4308H9.07236V15.7798H11.7648L10.6495 16.7355L10.3595 16.1555L9.14435 16.7634L9.82359 18.1218C9.91732 18.3086 10.0919 18.4424 10.297 18.4839C10.3412 18.4927 10.386 18.4968 10.4308 18.4968C10.5911 18.4968 10.7487 18.4397 10.873 18.3331L11.7893 17.5479V18.4968Z" fill="#009DFE"/>
<path d="M13.0105 21.9573C12.8869 21.7854 12.6961 21.6666 12.4685 21.6666H8.39312C8.01819 21.6666 7.71389 21.9709 7.71389 22.3458V26.4212C7.71389 26.7961 8.01819 27.1004 8.39312 27.1004H12.4685C12.8435 27.1004 13.1477 26.7961 13.1477 26.4212V23.6289L15.6276 21.5036L14.7433 20.4718L13.0105 21.9573ZM11.7893 25.742H10.4308H9.07236V23.025H11.7648L10.6495 23.9807L10.3595 23.4007L9.14435 24.0086L9.82359 25.367C9.91732 25.5538 10.0919 25.6876 10.297 25.7291C10.3412 25.7379 10.386 25.742 10.4308 25.742C10.5911 25.742 10.7487 25.6849 10.873 25.5783L11.7893 24.7931V25.742Z" fill="#009DFE"/>
<path d="M14.7433 27.7169L13.0105 29.2024C12.8869 29.0306 12.6961 28.9117 12.4685 28.9117H8.39312C8.01819 28.9117 7.71389 29.216 7.71389 29.5909V33.6663C7.71389 34.0412 8.01819 34.3455 8.39312 34.3455H12.4685C12.8435 34.3455 13.1477 34.0412 13.1477 33.6663V30.874L15.6276 28.7487L14.7433 27.7169ZM11.7893 32.9871H10.4308H9.07236V30.2702H11.7648L10.6495 31.2258L10.3595 30.6458L9.14435 31.2537L9.82359 32.6121C9.91732 32.7989 10.0919 32.9327 10.297 32.9742C10.3412 32.983 10.386 32.9871 10.4308 32.9871C10.5911 32.9871 10.7487 32.93 10.873 32.8234L11.7893 32.0382V32.9871Z" fill="#009DFE"/>
<path d="M28.9965 23.6415C28.9965 26.2634 31.1293 28.3962 33.7511 28.3962C36.373 28.3962 38.5057 26.2634 38.5057 23.6415C38.5057 21.0197 36.373 18.8869 33.7511 18.8869C31.1293 18.8869 28.9965 21.0197 28.9965 23.6415ZM33.7511 20.2454C35.6238 20.2454 37.1473 21.7689 37.1473 23.6415C37.1473 25.5142 35.6238 27.0377 33.7511 27.0377C31.8785 27.0377 30.355 25.5142 30.355 23.6415C30.355 21.7689 31.8785 20.2454 33.7511 20.2454Z" fill="#009DFE"/>
<path d="M35.1096 23.6415H36.468C36.468 22.1432 35.2495 20.9246 33.7511 20.9246V22.2831C34.5003 22.2831 35.1096 22.8924 35.1096 23.6415Z" fill="#009DFE"/>
<path d="M43.1782 35.5437L39.3541 28.494C39.5192 28.2053 39.6176 27.8847 39.6272 27.5532C40.0911 27.3433 40.464 26.965 40.6643 26.4766C40.8593 26.0005 40.8627 25.4788 40.6902 25.0095C41.0277 24.6407 41.2227 24.1557 41.2227 23.6415C41.2227 23.1138 41.0216 22.622 40.6718 22.2518C40.8511 21.7757 40.8471 21.2445 40.6433 20.7582C40.4449 20.2834 40.0782 19.9119 39.6244 19.702C39.6027 19.2027 39.3983 18.7218 39.0342 18.3578C38.6613 17.9849 38.1709 17.7798 37.6621 17.7655C37.4523 17.3016 37.0732 16.9287 36.5856 16.7283C36.1094 16.5334 35.5878 16.53 35.1184 16.7025C34.3821 16.0273 33.1283 16.0334 32.3927 16.6964V7.33996C32.3927 6.21651 31.4784 5.30226 30.355 5.30226H24.9211C23.2312 5.30226 21.601 4.48311 20.5618 3.11174C19.6537 1.91357 18.2714 1.22687 16.7703 1.22687C15.2692 1.22687 13.887 1.91357 12.9788 3.11174C11.9396 4.48311 10.3095 5.30226 8.61953 5.30226H3.18568C2.06223 5.30226 1.14798 6.21651 1.14798 7.33996V41.3016C1.14798 42.425 2.06223 43.3393 3.18568 43.3393H30.355C31.4784 43.3393 32.3927 42.425 32.3927 41.3016V38.6689L33.7511 33.235L35.13 38.7497C35.1992 39.0254 35.4322 39.2292 35.7148 39.2598C35.7399 39.2625 35.7644 39.2639 35.7888 39.2639C36.0435 39.2639 36.2799 39.1205 36.396 38.8882L38.1817 35.3168L42.3943 36.5204C42.6572 36.5952 42.9398 36.5062 43.1109 36.2922C43.2821 36.0796 43.3086 35.7842 43.1782 35.5437ZM33.1466 17.9088C33.3769 17.4469 34.103 17.4361 34.3468 17.8939C34.4426 18.0745 34.6151 18.2022 34.8155 18.2416C35.0152 18.2817 35.2237 18.228 35.3813 18.0976C35.5776 17.9339 35.8418 17.8905 36.0707 17.9856C36.3077 18.0827 36.4667 18.3048 36.485 18.5663C36.5007 18.7755 36.612 18.9657 36.7859 19.0818C36.9598 19.198 37.1778 19.2265 37.3775 19.1606C37.6248 19.0778 37.8924 19.1382 38.0737 19.3189C38.249 19.4941 38.3115 19.7543 38.2361 19.9981C38.1763 20.1937 38.2076 20.4057 38.321 20.5761C38.4351 20.746 38.6192 20.8553 38.8229 20.8737C39.077 20.8974 39.2943 21.0536 39.3894 21.2819C39.4879 21.5182 39.4431 21.7879 39.2719 21.9856C39.1347 22.1445 39.079 22.3571 39.1204 22.5629C39.1619 22.7687 39.2957 22.944 39.4832 23.037C39.7189 23.1545 39.8642 23.3861 39.8642 23.6415C39.8642 23.8894 39.7243 24.1177 39.4988 24.2372C39.3181 24.333 39.1904 24.5055 39.151 24.7059C39.1109 24.9063 39.1646 25.1141 39.295 25.2717C39.458 25.468 39.5008 25.7322 39.4071 25.9611C39.31 26.1982 39.0878 26.3571 38.8263 26.3754C38.6171 26.3911 38.427 26.5024 38.3108 26.6763C38.1947 26.8509 38.1654 27.0696 38.232 27.2686C38.3149 27.5172 38.2544 27.7835 38.0737 27.9642C37.8985 28.1401 37.6384 28.2026 37.3945 28.1272C37.1989 28.0681 36.9877 28.0986 36.8165 28.2121C36.6467 28.3262 36.5373 28.5103 36.519 28.714C36.4952 28.9681 36.339 29.1847 36.1108 29.2805C35.8751 29.3797 35.6047 29.3348 35.4071 29.163C35.2481 29.0258 35.0349 28.9681 34.8291 29.0109C34.6233 29.0523 34.448 29.1861 34.355 29.3742C34.1247 29.8354 33.3986 29.8463 33.1554 29.3885C33.0597 29.2078 32.8871 29.0801 32.6868 29.0407C32.6433 29.0319 32.5991 29.0278 32.5557 29.0278C32.3981 29.0278 32.2446 29.0829 32.121 29.1847C31.9247 29.3478 31.6611 29.3912 31.4315 29.2968C31.1952 29.1997 31.0362 28.9776 31.0172 28.7167C31.0016 28.5075 30.8902 28.3174 30.7163 28.2012C30.5417 28.0851 30.323 28.0552 30.1247 28.1224C29.8761 28.2066 29.6098 28.1448 29.4292 27.9642C29.2539 27.7889 29.1914 27.5288 29.2661 27.2849C29.3259 27.0893 29.2947 26.8774 29.1812 26.7069C29.0671 26.5371 28.8831 26.4277 28.6793 26.4094C28.4253 26.3856 28.2086 26.2294 28.1128 26.0012C28.0143 25.7648 28.0592 25.4958 28.2303 25.2975C28.3675 25.1386 28.4232 24.926 28.3825 24.7201C28.3417 24.5143 28.2072 24.3391 28.0198 24.2454C27.7834 24.1285 27.638 23.8969 27.638 23.6415C27.638 23.3936 27.778 23.1654 28.0035 23.0458C28.1841 22.9501 28.3118 22.7775 28.3512 22.5772C28.3913 22.3761 28.3376 22.1683 28.2072 22.0114C28.0442 21.8151 28.0014 21.5515 28.0952 21.3219C28.1923 21.0856 28.4144 20.9266 28.6752 20.9076C28.8844 20.892 29.0746 20.7806 29.1908 20.6067C29.3069 20.4322 29.3361 20.2134 29.2695 20.0151C29.1867 19.7665 29.2471 19.4996 29.4285 19.3189C29.6037 19.1437 29.8639 19.0805 30.1077 19.1566C30.3033 19.2156 30.5153 19.1851 30.6857 19.0716C30.8556 18.9575 30.9649 18.7735 30.9832 18.5697C31.007 18.3157 31.1632 18.0983 31.3915 18.0032C31.6272 17.9047 31.8975 17.9496 32.0952 18.1207C32.2534 18.2573 32.466 18.3129 32.6725 18.2722C32.8783 18.2301 33.0535 18.0956 33.1466 17.9088ZM30.2836 34.2056C30.1376 33.9136 29.8055 33.7662 29.4896 33.8565L26.2898 34.7707L29.2091 29.3899C29.4115 29.4639 29.6234 29.5114 29.8401 29.5182C30.05 29.9822 30.4283 30.3551 30.9167 30.5547C31.3921 30.7504 31.9158 30.7531 32.3845 30.5806C32.5448 30.728 32.7302 30.8421 32.9279 30.9304L31.5008 36.6386L30.2836 34.2056ZM31.0342 7.33996V16.6971C30.9785 16.7147 30.9221 16.7263 30.8678 16.7487C30.393 16.947 30.0215 17.3138 29.8116 17.7675C29.7654 17.7696 29.7212 17.7811 29.6757 17.7859V8.69842C29.6757 8.32348 29.3714 8.01919 28.9965 8.01919H25.6003V6.66072H30.355C30.7292 6.66072 31.0342 6.9657 31.0342 7.33996ZM9.29877 6.6254C11.1619 6.4325 12.9062 5.45645 14.0615 3.93225C14.7109 3.07642 15.6978 2.58533 16.7703 2.58533C17.8428 2.58533 18.8298 3.07642 19.4791 3.93225C20.6345 5.45712 22.3787 6.43318 24.2419 6.6254V8.69842C24.2419 9.07268 23.9369 9.37765 23.5626 9.37765H9.978C9.60374 9.37765 9.29877 9.07268 9.29877 8.69842V6.6254ZM9.978 10.7361H23.5626C24.447 10.7361 25.1942 10.1662 25.4754 9.37765H28.3173V18.5412C28.0449 18.8855 27.8873 19.2992 27.8751 19.7305C27.4112 19.9404 27.0383 20.3187 26.8386 20.8071C26.643 21.2832 26.6402 21.8056 26.8128 22.2749C26.4745 22.6424 26.2796 23.1273 26.2796 23.6415C26.2796 24.1686 26.4806 24.6604 26.8304 25.0306C26.6511 25.5067 26.6552 26.0379 26.859 26.5249C27.0573 26.999 27.4241 27.3705 27.8778 27.5804C27.8914 27.9023 27.9892 28.2128 28.1488 28.4926L24.3241 35.543C24.1936 35.7835 24.2201 36.0789 24.3913 36.2922C24.5625 36.5055 24.8443 36.5952 25.1079 36.5204L28.3173 35.6035V39.2639H5.22337V9.37765H8.06528C8.34648 10.1662 9.09364 10.7361 9.978 10.7361ZM30.355 41.9808H3.18568C2.81142 41.9808 2.50645 41.6758 2.50645 41.3016V7.33996C2.50645 6.9657 2.81142 6.66072 3.18568 6.66072H7.9403V8.01919H4.54414C4.16921 8.01919 3.86491 8.32348 3.86491 8.69842V39.9431C3.86491 40.318 4.16921 40.6223 4.54414 40.6223H28.9965C29.3714 40.6223 29.6757 40.318 29.6757 39.9431V36.028L31.0342 38.7449V41.3016C31.0342 41.6758 30.7292 41.9808 30.355 41.9808ZM38.0133 33.8565C37.6975 33.7641 37.3646 33.9136 37.2193 34.2056L36.0028 36.6386L34.5764 30.9324C34.7829 30.84 34.9758 30.7184 35.1408 30.5622C35.6183 30.7415 36.1488 30.7381 36.6351 30.5337C37.1092 30.3354 37.4815 29.9686 37.6907 29.5148C37.8978 29.506 38.0996 29.4578 38.2931 29.3878L41.2132 34.7707L38.0133 33.8565Z" fill="#009DFE"/>
<path d="M43.1782 35.5437L39.3541 28.494C39.5192 28.2053 39.6176 27.8847 39.6272 27.5532C40.0911 27.3433 40.464 26.965 40.6643 26.4766C40.8593 26.0005 40.8627 25.4788 40.6902 25.0095C41.0277 24.6407 41.2227 24.1557 41.2227 23.6415C41.2227 23.1138 41.0216 22.622 40.6718 22.2518C40.8511 21.7757 40.8471 21.2445 40.6433 20.7582C40.4449 20.2834 40.0782 19.9119 39.6244 19.702C39.6027 19.2027 39.3983 18.7218 39.0342 18.3578C38.6613 17.9849 38.1709 17.7798 37.6621 17.7655C37.4523 17.3016 37.0732 16.9287 36.5856 16.7283C36.1094 16.5334 35.5878 16.53 35.1184 16.7025C34.3821 16.0273 33.1283 16.0334 32.3927 16.6964V7.33996C32.3927 6.21651 31.4784 5.30226 30.355 5.30226H24.9211C23.2312 5.30226 21.601 4.48311 20.5618 3.11174C19.6537 1.91357 18.2714 1.22687 16.7703 1.22687C15.2692 1.22687 13.887 1.91357 12.9788 3.11174C11.9396 4.48311 10.3095 5.30226 8.61953 5.30226H3.18568C2.06223 5.30226 1.14798 6.21651 1.14798 7.33996V41.3016C1.14798 42.425 2.06223 43.3393 3.18568 43.3393H30.355C31.4784 43.3393 32.3927 42.425 32.3927 41.3016V38.6689L33.7511 33.235L35.13 38.7497C35.1992 39.0254 35.4322 39.2292 35.7148 39.2598C35.7399 39.2625 35.7644 39.2639 35.7888 39.2639C36.0435 39.2639 36.2799 39.1205 36.396 38.8882L38.1817 35.3168L42.3943 36.5204C42.6572 36.5952 42.9398 36.5062 43.1109 36.2922C43.2821 36.0796 43.3086 35.7842 43.1782 35.5437ZM33.1466 17.9088C33.3769 17.4469 34.103 17.4361 34.3468 17.8939C34.4426 18.0745 34.6151 18.2022 34.8155 18.2416C35.0152 18.2817 35.2237 18.228 35.3813 18.0976C35.5776 17.9339 35.8418 17.8905 36.0707 17.9856C36.3077 18.0827 36.4667 18.3048 36.485 18.5663C36.5007 18.7755 36.612 18.9657 36.7859 19.0818C36.9598 19.198 37.1778 19.2265 37.3775 19.1606C37.6248 19.0778 37.8924 19.1382 38.0737 19.3189C38.249 19.4941 38.3115 19.7543 38.2361 19.9981C38.1763 20.1937 38.2076 20.4057 38.321 20.5761C38.4351 20.746 38.6192 20.8553 38.8229 20.8737C39.077 20.8974 39.2943 21.0536 39.3894 21.2819C39.4879 21.5182 39.4431 21.7879 39.2719 21.9856C39.1347 22.1445 39.079 22.3571 39.1204 22.5629C39.1619 22.7687 39.2957 22.944 39.4832 23.037C39.7189 23.1545 39.8642 23.3861 39.8642 23.6415C39.8642 23.8894 39.7243 24.1177 39.4988 24.2372C39.3181 24.333 39.1904 24.5055 39.151 24.7059C39.1109 24.9063 39.1646 25.1141 39.295 25.2717C39.458 25.468 39.5008 25.7322 39.4071 25.9611C39.31 26.1982 39.0878 26.3571 38.8263 26.3754C38.6171 26.3911 38.427 26.5024 38.3108 26.6763C38.1947 26.8509 38.1654 27.0696 38.232 27.2686C38.3149 27.5172 38.2544 27.7835 38.0737 27.9642C37.8985 28.1401 37.6384 28.2026 37.3945 28.1272C37.1989 28.0681 36.9877 28.0986 36.8165 28.2121C36.6467 28.3262 36.5373 28.5103 36.519 28.714C36.4952 28.9681 36.339 29.1847 36.1108 29.2805C35.8751 29.3797 35.6047 29.3348 35.4071 29.163C35.2481 29.0258 35.0349 28.9681 34.8291 29.0109C34.6233 29.0523 34.448 29.1861 34.355 29.3742C34.1247 29.8354 33.3986 29.8463 33.1554 29.3885C33.0597 29.2078 32.8871 29.0801 32.6868 29.0407C32.6433 29.0319 32.5991 29.0278 32.5557 29.0278C32.3981 29.0278 32.2446 29.0829 32.121 29.1847C31.9247 29.3478 31.6611 29.3912 31.4315 29.2968C31.1952 29.1997 31.0362 28.9776 31.0172 28.7167C31.0016 28.5075 30.8902 28.3174 30.7163 28.2012C30.5417 28.0851 30.323 28.0552 30.1247 28.1224C29.8761 28.2066 29.6098 28.1448 29.4292 27.9642C29.2539 27.7889 29.1914 27.5288 29.2661 27.2849C29.3259 27.0893 29.2947 26.8774 29.1812 26.7069C29.0671 26.5371 28.8831 26.4277 28.6793 26.4094C28.4253 26.3856 28.2086 26.2294 28.1128 26.0012C28.0143 25.7648 28.0592 25.4958 28.2303 25.2975C28.3675 25.1386 28.4232 24.926 28.3825 24.7201C28.3417 24.5143 28.2072 24.3391 28.0198 24.2454C27.7834 24.1285 27.638 23.8969 27.638 23.6415C27.638 23.3936 27.778 23.1654 28.0035 23.0458C28.1841 22.9501 28.3118 22.7775 28.3512 22.5772C28.3913 22.3761 28.3376 22.1683 28.2072 22.0114C28.0442 21.8151 28.0014 21.5515 28.0952 21.3219C28.1923 21.0856 28.4144 20.9266 28.6752 20.9076C28.8844 20.892 29.0746 20.7806 29.1908 20.6067C29.3069 20.4322 29.3361 20.2134 29.2695 20.0151C29.1867 19.7665 29.2471 19.4996 29.4285 19.3189C29.6037 19.1437 29.8639 19.0805 30.1077 19.1566C30.3033 19.2156 30.5153 19.1851 30.6857 19.0716C30.8556 18.9575 30.9649 18.7735 30.9832 18.5697C31.007 18.3157 31.1632 18.0983 31.3915 18.0032C31.6272 17.9047 31.8975 17.9496 32.0952 18.1207C32.2534 18.2573 32.466 18.3129 32.6725 18.2722C32.8783 18.2301 33.0535 18.0956 33.1466 17.9088ZM30.2836 34.2056C30.1376 33.9136 29.8055 33.7662 29.4896 33.8565L26.2898 34.7707L29.2091 29.3899C29.4115 29.4639 29.6234 29.5114 29.8401 29.5182C30.05 29.9822 30.4283 30.3551 30.9167 30.5547C31.3921 30.7504 31.9158 30.7531 32.3845 30.5806C32.5448 30.728 32.7302 30.8421 32.9279 30.9304L31.5008 36.6386L30.2836 34.2056ZM31.0342 7.33996V16.6971C30.9785 16.7147 30.9221 16.7263 30.8678 16.7487C30.393 16.947 30.0215 17.3138 29.8116 17.7675C29.7654 17.7696 29.7212 17.7811 29.6757 17.7859V8.69842C29.6757 8.32348 29.3714 8.01919 28.9965 8.01919H25.6003V6.66072H30.355C30.7292 6.66072 31.0342 6.9657 31.0342 7.33996ZM9.29877 6.6254C11.1619 6.4325 12.9062 5.45645 14.0615 3.93225C14.7109 3.07642 15.6978 2.58533 16.7703 2.58533C17.8428 2.58533 18.8298 3.07642 19.4791 3.93225C20.6345 5.45712 22.3787 6.43318 24.2419 6.6254V8.69842C24.2419 9.07268 23.9369 9.37765 23.5626 9.37765H9.978C9.60374 9.37765 9.29877 9.07268 9.29877 8.69842V6.6254ZM9.978 10.7361H23.5626C24.447 10.7361 25.1942 10.1662 25.4754 9.37765H28.3173V18.5412C28.0449 18.8855 27.8873 19.2992 27.8751 19.7305C27.4112 19.9404 27.0383 20.3187 26.8386 20.8071C26.643 21.2832 26.6402 21.8056 26.8128 22.2749C26.4745 22.6424 26.2796 23.1273 26.2796 23.6415C26.2796 24.1686 26.4806 24.6604 26.8304 25.0306C26.6511 25.5067 26.6552 26.0379 26.859 26.5249C27.0573 26.999 27.4241 27.3705 27.8778 27.5804C27.8914 27.9023 27.9892 28.2128 28.1488 28.4926L24.3241 35.543C24.1936 35.7835 24.2201 36.0789 24.3913 36.2922C24.5625 36.5055 24.8443 36.5952 25.1079 36.5204L28.3173 35.6035V39.2639H5.22337V9.37765H8.06528C8.34648 10.1662 9.09364 10.7361 9.978 10.7361ZM30.355 41.9808H3.18568C2.81142 41.9808 2.50645 41.6758 2.50645 41.3016V7.33996C2.50645 6.9657 2.81142 6.66072 3.18568 6.66072H7.9403V8.01919H4.54414C4.16921 8.01919 3.86491 8.32348 3.86491 8.69842V39.9431C3.86491 40.318 4.16921 40.6223 4.54414 40.6223H28.9965C29.3714 40.6223 29.6757 40.318 29.6757 39.9431V36.028L31.0342 38.7449V41.3016C31.0342 41.6758 30.7292 41.9808 30.355 41.9808ZM38.0133 33.8565C37.6975 33.7641 37.3646 33.9136 37.2193 34.2056L36.0028 36.6386L34.5764 30.9324C34.7829 30.84 34.9758 30.7184 35.1408 30.5622C35.6183 30.7415 36.1488 30.7381 36.6351 30.5337C37.1092 30.3354 37.4815 29.9686 37.6907 29.5148C37.8978 29.506 38.0996 29.4578 38.2931 29.3878L41.2132 34.7707L38.0133 33.8565Z" fill="#009DFE"/>
<path d="M16.7703 15.0379H24.9211V16.3964H16.7703V15.0379Z" fill="#009DFE"/>
<path d="M16.7703 29.5282H24.9211V30.8867H16.7703V29.5282Z" fill="#009DFE"/>
<path d="M16.7703 22.2831H24.9211V23.6415H16.7703V22.2831Z" fill="#009DFE"/>
<path d="M19.4872 24.0944H24.9211V25.4528H19.4872V24.0944Z" fill="#009DFE"/>
<path d="M19.4872 16.8492H24.9211V18.2076H19.4872V16.8492Z" fill="#009DFE"/>
<path d="M16.7703 24.0944H18.1288V25.4528H16.7703V24.0944Z" fill="#009DFE"/>
<path d="M16.7703 16.8492H18.1288V18.2076H16.7703V16.8492Z" fill="#009DFE"/>
<path d="M16.7703 31.3395H22.2042V32.6979H16.7703V31.3395Z" fill="#009DFE"/>
<path d="M23.5626 31.3395H24.9211V32.6979H23.5626V31.3395Z" fill="#009DFE"/>
<path d="M18.1288 5.98152H19.4872C19.4872 4.48313 18.2687 3.26459 16.7703 3.26459V4.62305C17.5195 4.62305 18.1288 5.23232 18.1288 5.98152Z" fill="#009DFE"/>
<path d="M37.1962 31.412L38.4107 30.8048L39.0895 32.1625L37.8751 32.7697L37.1962 31.412Z" fill="#009DFE"/>
</g>
<defs>
<clipPath id="clip0">
<rect width="43.4709" height="43.4709" fill="white" transform="translate(0.46875 0.547607)"/>
</clipPath>
</defs>
</svg>
