<svg width="44" height="45" viewBox="0 0 44 45" fill="none" xmlns="http://www.w3.org/2000/svg">
<g clip-path="url(#clip0)">
<path d="M39.6809 0.842285H3.73141C1.74711 0.844808 0.139122 2.45279 0.136599 4.43708V33.1966C0.139122 35.181 1.74711 36.7888 3.73141 36.7914H15.9544V35.3535H3.73141C2.54047 35.3535 1.57445 34.3875 1.57445 33.1966V4.43708C1.57445 3.24615 2.54047 2.28013 3.73141 2.28013H39.6809C40.8719 2.28013 41.8379 3.24615 41.8379 4.43708V33.1966C41.8381 34.18 41.1732 35.0395 40.2205 35.2857L40.5803 36.6778C42.1675 36.2676 43.2759 34.8357 43.2757 33.1966V4.43708C43.2732 2.45279 41.6654 0.844808 39.6809 0.842285Z" fill="#0C71A9"/>
<path d="M3.01252 3.71826H4.45038V5.15611H3.01252V3.71826Z" fill="#0C71A9"/>
<path d="M5.88821 3.71826H7.3264V5.15611H5.88821V3.71826Z" fill="#0C71A9"/>
<path d="M8.76429 3.71826H10.2021V5.15611H8.76429V3.71826Z" fill="#0C71A9"/>
<path d="M3.01252 6.59399H40.3994V8.03222H3.01252V6.59399Z" fill="#0C71A9"/>
<path d="M5.88833 20.974H13.7974V19.5358H6.60744V13.784H36.8048V20.974H37.5239C37.9207 20.974 38.2426 20.6521 38.2426 20.2549V13.0649C38.2426 12.6679 37.9207 12.3462 37.5239 12.3462H5.88833C5.4913 12.3462 5.16959 12.6679 5.16959 13.0649V20.2549C5.16959 20.6521 5.4913 20.974 5.88833 20.974Z" fill="#0C71A9"/>
<path d="M9.48351 15.2214H10.9213V18.0975H9.48351V15.2214Z" fill="#0C71A9"/>
<path d="M36.0856 9.46997H37.5238V10.9078H36.0856V9.46997Z" fill="#0C71A9"/>
<path d="M33.2099 9.46997H34.6478V10.9078H33.2099V9.46997Z" fill="#0C71A9"/>
<path d="M30.3339 9.46997H31.7718V10.9078H30.3339V9.46997Z" fill="#0C71A9"/>
<path d="M25.301 38.0646C27.3784 38.066 29.4182 37.5046 31.2025 36.4405L37.728 43.1469C38.2402 43.6763 38.9439 43.9767 39.6809 43.981H39.705C40.8057 43.9848 41.8016 43.3295 42.2329 42.3172C42.6649 41.3048 42.4477 40.1325 41.6832 39.3413L35.1123 32.588C36.2184 30.8023 36.8048 28.7432 36.8048 26.6425C36.8384 21.9824 34.0564 17.7626 29.7603 15.9563C25.4646 14.1499 20.503 15.1138 17.196 18.3973C13.889 21.6809 12.89 26.6351 14.6654 30.9438C16.4414 35.2527 20.6405 38.0646 25.301 38.0646ZM40.6541 40.3437C41.1459 40.8521 41.1387 41.6612 40.6375 42.1602C40.3895 42.4075 40.0531 42.5455 39.7032 42.5432H39.6949C39.3426 42.5414 39.0056 42.3976 38.7608 42.1445L32.412 35.6205C32.4387 35.5994 32.4621 35.574 32.4886 35.5529C32.793 35.3125 33.0846 35.0562 33.3621 34.7859C33.374 34.7751 33.3868 34.7651 33.3984 34.7536C33.6837 34.4703 33.9542 34.1718 34.2081 33.8597C34.2285 33.835 34.2534 33.8125 34.2732 33.788L40.6541 40.3437ZM25.301 16.6598C30.835 16.643 35.3376 21.1088 35.367 26.6425C35.3688 28.6547 34.7562 30.6198 33.6103 32.2737C30.9467 36.256 25.84 37.7994 21.4166 35.9602C16.9933 34.1207 14.4868 29.411 15.4319 24.7145C16.3772 20.0177 20.5102 16.6444 25.301 16.6598Z" fill="#0C71A9"/>
<path d="M25.3008 34.6343C29.6688 34.6343 33.2099 31.0936 33.2099 26.7256C33.2099 22.3574 29.6688 18.8169 25.3008 18.8169C20.9329 18.8169 17.3921 22.3574 17.3921 26.7256C17.3976 31.0914 20.9352 34.6291 25.3008 34.6343ZM25.3008 20.2547C28.8747 20.2547 31.7717 23.1517 31.7717 26.7256C31.7717 30.2995 28.8747 33.1965 25.3008 33.1965C21.7271 33.1965 18.83 30.2995 18.83 26.7256C18.8341 23.1535 21.7288 20.2585 25.3008 20.2547Z" fill="#0C71A9"/>
<path d="M21.1975 27.6557L26.9493 21.9038L27.9663 22.9206L22.2144 28.6724L21.1975 27.6557Z" fill="#0C71A9"/>
<path d="M24.0738 29.0933L28.3877 24.7795L29.4041 25.7964L25.0902 30.1103L24.0738 29.0933Z" fill="#0C71A9"/>
</g>
<defs>
<clipPath id="clip0">
<rect width="43.139" height="43.139" fill="white" transform="translate(0.136547 0.888184)"/>
</clipPath>
</defs>
</svg>
