<svg width="53" height="52" viewBox="0 0 53 52" fill="none" xmlns="http://www.w3.org/2000/svg">
<g clip-path="url(#clip0)">
<path d="M51.8052 38.1609H50.0719V11.2943C50.0688 8.90227 48.1305 6.96397 45.7385 6.96094H7.60521C5.21321 6.96397 3.27491 8.90227 3.27188 11.2943V38.1609H1.53855C1.05971 38.1609 0.671879 38.5488 0.671879 39.0276V41.6276C0.671879 43.542 2.22408 45.0942 4.13855 45.0942H49.2052C51.1197 45.0942 52.6719 43.542 52.6719 41.6276V39.0276C52.6719 38.5488 52.284 38.1609 51.8052 38.1609ZM5.00521 11.2943C5.00521 9.85864 6.16958 8.69427 7.60521 8.69427H45.7385C47.1742 8.69427 48.3385 9.85864 48.3385 11.2943V38.1609H46.6052V13.0276C46.6052 11.592 45.4408 10.4276 44.0052 10.4276H9.33855C7.90291 10.4276 6.73855 11.592 6.73855 13.0276V38.1609H5.00521V11.2943ZM44.8719 13.0276V38.1609H31.9741C31.049 38.1557 30.2025 38.6785 29.7919 39.5069C29.6749 39.7452 29.4311 39.896 29.1653 39.8943H24.1741C23.9081 39.896 23.665 39.7452 23.5475 39.5069C23.1376 38.6796 22.2928 38.1577 21.3696 38.1609H8.47188V13.0276C8.47188 12.5488 8.85971 12.1609 9.33855 12.1609H44.0052C44.484 12.1609 44.8719 12.5488 44.8719 13.0276ZM50.9385 41.6276C50.9385 42.585 50.1627 43.3609 49.2052 43.3609H4.13855C3.1811 43.3609 2.40521 42.585 2.40521 41.6276V39.8943H21.3696C21.6357 39.8925 21.8788 40.0433 21.9962 40.2817C22.4061 41.1089 23.2509 41.6308 24.1741 41.6276H29.1696C30.0948 41.6328 30.9413 41.11 31.3519 40.2817C31.4687 40.0446 31.7096 39.8943 31.9741 39.8943H50.9385V41.6276Z" fill="#0C71A9"/>
<path d="M26.6719 17.3611C21.995 17.3633 17.6343 19.7215 15.072 23.6338C12.5102 27.5466 12.0916 32.4869 13.9597 36.7745L15.5483 36.0811C14.9992 34.8178 14.6727 33.469 14.5824 32.0945H16.3109C16.4518 33.8087 17.0181 35.4604 17.9576 36.9012L19.4104 35.9544C17.0541 32.3315 17.7269 27.526 20.9883 24.6901C24.2494 21.8537 29.1012 21.8537 32.3627 24.6901C35.6235 27.526 36.2971 32.3315 33.9409 35.9544L35.393 36.9012C36.3305 35.4597 36.8943 33.8079 37.0329 32.0945H38.7615C38.6712 33.469 38.3446 34.8178 37.7956 36.0811L39.3842 36.7745C41.2523 32.4869 40.8337 27.5466 38.2718 23.6338C35.7095 19.7215 31.3489 17.3633 26.6719 17.3611ZM16.3157 30.3611H14.5824C14.7672 27.7503 15.7953 25.2694 17.513 23.2945L18.7378 24.5187C17.3403 26.166 16.494 28.2085 16.3157 30.3611ZM25.8053 20.8715C23.6527 21.0498 21.6102 21.8961 19.9629 23.2937L18.7387 22.0688C20.7136 20.3511 23.1944 19.323 25.8053 19.1382V20.8715ZM33.381 23.2937C31.7337 21.8961 29.6912 21.0498 27.5386 20.8715V19.1382C30.1494 19.323 32.6303 20.3511 34.6052 22.0688L33.381 23.2937ZM37.0282 30.3611C36.8499 28.2085 36.0036 26.166 34.6061 24.5187L35.8309 23.2945C37.5486 25.2694 38.5767 27.7503 38.7615 30.3611H37.0282Z" fill="#0C71A9"/>
<path d="M27.7857 28.8876C27.4388 28.7184 27.0579 28.6294 26.672 28.6276C25.2364 28.6276 24.072 29.792 24.072 31.2276C24.072 32.6633 25.2364 33.8276 26.672 33.8276C28.1077 33.8276 29.2721 32.6633 29.2721 31.2276C29.2703 30.8417 29.1813 30.4608 29.0121 30.114L32.4855 26.6404L31.26 25.4149L27.7857 28.8876ZM26.672 32.0943C26.1932 32.0943 25.8054 31.7065 25.8054 31.2276C25.8054 30.7488 26.1932 30.361 26.672 30.361C27.1509 30.361 27.5387 30.7488 27.5387 31.2276C27.5387 31.7065 27.1509 32.0943 26.672 32.0943Z" fill="#0C71A9"/>
<path d="M23.2055 35.5607H27.5388V37.294H23.2055V35.5607Z" fill="#0C71A9"/>
<path d="M29.2716 35.5607H31.0049V37.294H29.2716V35.5607Z" fill="#0C71A9"/>
<path d="M10.2055 13.8942H11.9388V15.6275H10.2055V13.8942Z" fill="#0C71A9"/>
<path d="M17.1383 13.8942H18.8716V15.6275H17.1383V13.8942Z" fill="#0C71A9"/>
<path d="M10.2055 17.3611H14.5388V19.0944H10.2055V17.3611Z" fill="#0C71A9"/>
<path d="M35.3389 13.8942H43.1389V15.6275H35.3389V13.8942Z" fill="#0C71A9"/>
<path d="M37.9387 17.3611H43.1387V19.0944H37.9387V17.3611Z" fill="#0C71A9"/>
<path d="M13.6719 13.8942H15.4052V15.6275H13.6719V13.8942Z" fill="#0C71A9"/>
</g>
<defs>
<clipPath id="clip0">
<rect width="52" height="52" fill="white" transform="translate(0.671875)"/>
</clipPath>
</defs>
</svg>
