<svg width="49" height="48" viewBox="0 0 49 48" fill="none" xmlns="http://www.w3.org/2000/svg">
<g clip-path="url(#clip0)">
<path d="M47.0467 2.62354H1.83629C1.10632 2.62354 0.512451 3.21731 0.512451 3.94709V44.1129C0.512451 44.8427 1.10632 45.4364 1.83629 45.4364H22.8252C23.2123 45.4364 23.5262 45.1226 23.5262 44.7353C23.5262 44.3481 23.2123 44.0343 22.8252 44.0343H1.91462V13.8585L22.8252 13.8559C23.2123 13.8558 23.5262 13.542 23.5262 13.1548C23.5261 12.7675 23.2122 12.4537 22.825 12.4538L1.91462 12.4563V4.0257H46.971V12.4563L26.0606 12.4538C25.6734 12.4538 25.3595 12.7676 25.3595 13.1548C25.3595 13.542 25.6733 13.8558 26.0605 13.8559L46.971 13.8585V44.0343H26.132C25.7449 44.0343 25.431 44.3481 25.431 44.7353C25.431 45.1226 25.7449 45.4364 26.132 45.4364H47.0467C47.7781 45.4364 48.3731 44.8427 48.3731 44.1129V3.94709C48.3731 3.21731 47.7781 2.62354 47.0467 2.62354Z" fill="#0C71A9"/>
<path d="M24.0415 35.7255C25.4202 35.7255 26.5418 34.6041 26.5418 33.2258C26.5418 32.083 25.7706 31.1177 24.7214 30.8208V25.9005C25.7597 25.5967 26.5206 24.6366 26.5206 23.5015C26.5206 22.1217 25.399 20.9991 24.0203 20.9991C23.3672 20.9991 22.772 21.2513 22.3262 21.6631L18.0997 19.312C18.1289 19.1596 18.1447 19.0027 18.1447 18.842C18.1447 17.4636 17.023 16.3423 15.6444 16.3423C14.2643 16.3423 13.1414 17.4636 13.1414 18.842C13.1414 19.003 13.1573 19.1605 13.1867 19.3132L8.9611 21.6627C8.51484 21.2511 7.91929 20.9992 7.26579 20.9992C5.88708 20.9992 4.76544 22.1217 4.76544 23.5016C4.76544 24.6366 5.52626 25.5967 6.56471 25.9006V30.8337C5.5385 31.1452 4.78937 32.0996 4.78937 33.2259C4.78937 34.6042 5.91101 35.7256 7.28963 35.7256C7.92406 35.7256 8.50362 35.4877 8.94493 35.097L13.1867 37.4563C13.1573 37.6091 13.1414 37.7665 13.1414 37.9276C13.1414 39.3075 14.2643 40.43 15.6444 40.43C17.0231 40.43 18.1447 39.3075 18.1447 37.9276C18.1447 37.7665 18.1288 37.609 18.0994 37.4561L22.368 35.0812C22.8114 35.4814 23.3985 35.7255 24.0415 35.7255ZM25.1396 33.2258C25.1396 33.831 24.647 34.3233 24.0415 34.3233C23.4361 34.3233 22.9433 33.8309 22.9433 33.2258C22.9433 32.6207 23.436 32.1283 24.0415 32.1283C24.6471 32.1283 25.1396 32.6206 25.1396 33.2258ZM24.0203 22.4013C24.6259 22.4013 25.1185 22.8949 25.1185 23.5016C25.1185 24.1068 24.6259 24.5991 24.0203 24.5991C23.4148 24.5991 22.9222 24.1067 22.9222 23.5016C22.9221 22.8949 23.4148 22.4013 24.0203 22.4013ZM15.6443 17.7445C16.2499 17.7445 16.7424 18.237 16.7424 18.8421C16.7424 19.4472 16.2498 19.9396 15.6443 19.9396C15.0374 19.9396 14.5435 19.4472 14.5435 18.8421C14.5435 18.237 15.0374 17.7445 15.6443 17.7445ZM15.6443 21.3418C16.358 21.3418 17.0023 21.0408 17.4582 20.5597L21.6022 22.865C21.5487 23.0683 21.52 23.2816 21.52 23.5016C21.52 23.7207 21.5486 23.9332 21.6017 24.1358L17.4572 26.4423C17.0013 25.9618 16.3574 25.6614 15.6443 25.6614C14.9303 25.6614 14.2856 25.962 13.8292 26.4426L9.68649 24.137C9.73996 23.934 9.76866 23.7212 9.76866 23.5016C9.76866 23.2812 9.73978 23.0676 9.68603 22.864L13.8291 20.5604C14.2855 21.041 14.9302 21.3418 15.6443 21.3418ZM15.6443 29.2586C15.0374 29.2586 14.5435 28.7662 14.5435 28.1611C14.5435 27.556 15.0374 27.0635 15.6443 27.0635C16.2499 27.0635 16.7424 27.556 16.7424 28.1611C16.7424 28.7662 16.2499 29.2586 15.6443 29.2586ZM6.16761 23.5016C6.16761 22.895 6.66024 22.4013 7.26579 22.4013C7.87274 22.4013 8.36649 22.8949 8.36649 23.5016C8.36649 23.7127 8.30536 23.9095 8.20122 24.0771C8.19571 24.086 8.18982 24.0944 8.18468 24.1037C8.18402 24.1048 8.18365 24.1059 8.18299 24.107C7.98566 24.4033 7.6483 24.5992 7.2657 24.5992C6.66024 24.5991 6.16761 24.1067 6.16761 23.5016ZM7.28963 34.3233C6.68408 34.3233 6.19154 33.8309 6.19154 33.2258C6.19154 32.6207 6.68417 32.1283 7.28963 32.1283C7.89508 32.1283 8.3878 32.6207 8.3878 33.2258C8.3878 33.8309 7.89508 34.3233 7.28963 34.3233ZM9.69416 33.9092C9.75604 33.6919 9.78988 33.4628 9.78988 33.2258C9.78988 32.0821 9.01738 31.1161 7.96687 30.8201V25.9008C8.34219 25.7912 8.68133 25.5963 8.96139 25.3382L13.1867 27.6897C13.1573 27.8424 13.1414 27.9999 13.1414 28.1611C13.1414 29.2964 13.9035 30.2567 14.9433 30.5603V35.5285C14.5128 35.6543 14.1302 35.8924 13.8292 36.2092L9.69416 33.9092ZM15.6443 39.0278C15.0374 39.0278 14.5435 38.5342 14.5435 37.9276C14.5435 37.3223 15.0374 36.83 15.6443 36.83C16.2499 36.83 16.7424 37.3224 16.7424 37.9276C16.7425 38.5342 16.2499 39.0278 15.6443 39.0278ZM16.3454 35.5286V30.56C17.3837 30.2562 18.1446 29.2961 18.1446 28.161C18.1446 27.9998 18.1287 27.8423 18.0993 27.6896L22.3257 25.3376C22.6055 25.5959 22.9442 25.7908 23.3191 25.9005V30.8329C22.2916 31.1435 21.5411 32.0985 21.5411 33.2258C21.5411 33.4546 21.5726 33.6762 21.6305 33.887L17.4572 36.2089C17.157 35.8924 16.7751 35.6544 16.3454 35.5286Z" fill="#0C71A9"/>
<path d="M30.4377 23.3629H42.9685C43.602 23.3629 44.1175 22.8488 44.1175 22.2168V19.5123C44.1175 18.8789 43.602 18.3635 42.9685 18.3635H30.4377C29.8057 18.3635 29.2915 18.8789 29.2915 19.5123V22.2168C29.2915 22.8488 29.8057 23.3629 30.4377 23.3629ZM30.6937 19.7658H42.7153V21.9607H30.6937V19.7658Z" fill="#0C71A9"/>
<path d="M29.2915 29.7372C29.2915 30.3706 29.8057 30.886 30.4377 30.886H38.5858C39.2193 30.886 39.7348 30.3706 39.7348 29.7372V27.0326C39.7348 26.4006 39.2193 25.8865 38.5858 25.8865H30.4377C29.8057 25.8865 29.2915 26.4006 29.2915 27.0326V29.7372ZM30.6937 27.2886H38.3325V29.4837H30.6937V27.2886Z" fill="#0C71A9"/>
<path d="M29.2915 37.2575C29.2915 37.8909 29.8057 38.4062 30.4377 38.4062H40.4672C41.1007 38.4062 41.6161 37.8909 41.6161 37.2575V34.5529C41.6161 33.9209 41.1007 33.4067 40.4672 33.4067H30.4377C29.8057 33.4067 29.2915 33.9209 29.2915 34.5529V37.2575ZM30.6937 34.809H40.2138V37.004H30.6937V34.809Z" fill="#0C71A9"/>
<path d="M28.37 8.07682C28.37 7.68954 28.0561 7.37573 27.6689 7.37573H7.31595C6.92877 7.37573 6.61487 7.68954 6.61487 8.07682C6.61487 8.4641 6.92877 8.7779 7.31595 8.7779H27.6688C28.0561 8.7779 28.37 8.464 28.37 8.07682Z" fill="#0C71A9"/>
<path d="M33.5011 8.57528L33.5038 8.57266C33.7776 8.29877 33.7762 7.85625 33.5024 7.58245C33.2286 7.30856 32.7834 7.30987 32.5096 7.58376C32.2358 7.85765 32.2358 8.30148 32.5096 8.57528C32.6465 8.71213 32.8259 8.78055 33.0053 8.78055C33.1847 8.78055 33.3643 8.71213 33.5011 8.57528Z" fill="#0C71A9"/>
<path d="M37.0335 8.57528L37.0362 8.57266C37.31 8.29877 37.3086 7.85625 37.0348 7.58245C36.7611 7.30856 36.3158 7.30987 36.042 7.58376C35.7682 7.85765 35.7682 8.30148 36.042 8.57528C36.1789 8.71213 36.3583 8.78055 36.5377 8.78055C36.7171 8.78055 36.8967 8.71213 37.0335 8.57528Z" fill="#0C71A9"/>
<path d="M40.5681 8.57528L40.5707 8.57266C40.8445 8.29877 40.8432 7.85625 40.5694 7.58245C40.2956 7.30856 39.8504 7.30987 39.5766 7.58376C39.3028 7.85765 39.3028 8.30148 39.5766 8.57528C39.7135 8.71213 39.8929 8.78055 40.0723 8.78055C40.2517 8.78055 40.4313 8.71213 40.5681 8.57528Z" fill="black"/>
</g>
<defs>
<clipPath id="clip0">
<rect width="47.8607" height="47.8607" fill="white" transform="translate(0.512451 0.0996094)"/>
</clipPath>
</defs>
</svg>
