<svg width="25" height="24" viewBox="0 0 25 24" fill="none" xmlns="http://www.w3.org/2000/svg">
<g clip-path="url(#clip0)">
<path d="M0.709578 4.76825L7.98828 12.0001L0.709578 19.2319C0.577999 18.9569 0.498171 18.6529 0.498171 18.3282V5.67195C0.498171 5.34725 0.577999 5.04327 0.709578 4.76825Z" fill="white"/>
<path d="M2.61192 3.5625H22.3932C22.7179 3.5625 23.0219 3.64233 23.2969 3.77391L13.9939 13.03C13.1714 13.8526 11.8337 13.8526 11.0112 13.03L1.70822 3.77391C1.98323 3.64233 2.28722 3.5625 2.61192 3.5625Z" fill="white"/>
<path d="M24.2886 4.76825C24.4202 5.04327 24.5 5.34725 24.5 5.67195V18.3282C24.5 18.6529 24.4202 18.9569 24.2886 19.2319L17.0099 12.0001L24.2886 4.76825Z" fill="white"/>
<path d="M8.98692 12.9943L10.0169 14.0242C11.3875 15.3948 13.6177 15.3948 14.9882 14.0242L16.0182 12.9943L23.2969 20.2261C23.0219 20.3577 22.7179 20.4375 22.3932 20.4375H2.61192C2.28722 20.4375 1.98323 20.3577 1.70822 20.2261L8.98692 12.9943Z" fill="white"/>
</g>
<defs>
<clipPath id="clip0">
<rect width="24" height="24" fill="white" transform="matrix(-1 0 0 1 24.5 0)"/>
</clipPath>
</defs>
</svg>
