<svg width="25" height="25" viewBox="0 0 25 25" fill="none" xmlns="http://www.w3.org/2000/svg">
<path d="M23.845 17.8362L20.4958 14.487C19.2996 13.2908 17.2661 13.7693 16.7876 15.3243C16.4288 16.4009 15.2326 16.999 14.1561 16.7597C11.7637 16.1616 8.53407 13.0516 7.93598 10.5396C7.57713 9.46301 8.29483 8.26684 9.37138 7.90804C10.9264 7.42957 11.4049 5.39609 10.2087 4.19992L6.85943 0.850645C5.9025 0.0133268 4.46709 0.0133268 3.62978 0.850645L1.35706 3.12336C-0.915664 5.5157 1.59629 11.8554 7.21828 17.4774C12.8403 23.0994 19.18 25.731 21.5723 23.3386L23.845 21.0659C24.6824 20.109 24.6824 18.6736 23.845 17.8362Z" fill="#009DFE"/>
</svg>
