<svg width="25" height="25" viewBox="0 0 25 25" fill="none" xmlns="http://www.w3.org/2000/svg">
<g clip-path="url(#clip0)">
<path d="M24.2904 4.99121L17.0117 12.223L24.2904 19.4549C24.422 19.1799 24.5018 18.8758 24.5018 18.5512V5.89491C24.5018 5.57021 24.422 5.26623 24.2904 4.99121Z" fill="#009DFE"/>
<path d="M22.392 3.78516H2.61073C2.28603 3.78516 1.98205 3.86498 1.70703 3.99656L11.01 13.2527C11.8325 14.0752 13.1702 14.0752 13.9927 13.2527L23.2957 3.99656C23.0207 3.86498 22.7167 3.78516 22.392 3.78516Z" fill="#009DFE"/>
<path d="M0.711406 4.99121C0.579828 5.26623 0.5 5.57021 0.5 5.89491V18.5512C0.5 18.8759 0.579828 19.1799 0.711406 19.4549L7.99011 12.223L0.711406 4.99121Z" fill="#009DFE"/>
<path d="M16.017 13.2168L14.987 14.2468C13.6164 15.6174 11.3863 15.6174 10.0157 14.2468L8.98573 13.2168L1.70703 20.4486C1.98205 20.5802 2.28603 20.66 2.61073 20.66H22.392C22.7167 20.66 23.0207 20.5802 23.2957 20.4486L16.017 13.2168Z" fill="#009DFE"/>
</g>
<defs>
<clipPath id="clip0">
<rect width="24" height="24" fill="white" transform="translate(0.5 0.222656)"/>
</clipPath>
</defs>
</svg>
