<svg width="17" height="25" viewBox="0 0 17 25" fill="none" xmlns="http://www.w3.org/2000/svg">
<path d="M15.6068 4.33254C14.1502 1.81891 11.5631 0.283242 8.68616 0.224555C8.56335 0.222023 8.43974 0.222023 8.31688 0.224555C5.43997 0.283242 2.85285 1.81891 1.39625 4.33254C-0.0925902 6.90185 -0.133325 9.9881 1.28727 12.5883L7.23866 23.4814C7.24133 23.4863 7.244 23.4911 7.24677 23.4959C7.50861 23.951 7.97769 24.2227 8.50161 24.2227C9.02549 24.2227 9.49457 23.9509 9.75636 23.4959C9.75913 23.4911 9.7618 23.4863 9.76447 23.4814L15.7159 12.5883C17.1364 9.9881 17.0956 6.90185 15.6068 4.33254ZM8.50152 11.0977C6.64053 11.0977 5.12652 9.58366 5.12652 7.72268C5.12652 5.8617 6.64053 4.34768 8.50152 4.34768C10.3625 4.34768 11.8765 5.8617 11.8765 7.72268C11.8765 9.58366 10.3626 11.0977 8.50152 11.0977Z" fill="#009DFE"/>
</svg>
