<svg width="25" height="24" viewBox="0 0 25 24" fill="none" xmlns="http://www.w3.org/2000/svg">
<g clip-path="url(#clip0)">
<path d="M23.845 17.6136L20.4958 14.2643C19.2996 13.0681 17.2661 13.5467 16.7876 15.1016C16.4288 16.1782 15.2326 16.7763 14.1561 16.537C11.7637 15.9389 8.53407 12.8289 7.93598 10.317C7.57713 9.24036 8.29483 8.04419 9.37138 7.68538C10.9264 7.20691 11.4049 5.17343 10.2087 3.97726L6.85943 0.627989C5.9025 -0.209329 4.46709 -0.209329 3.62978 0.627989L1.35706 2.90071C-0.915664 5.29305 1.59629 11.6327 7.21828 17.2547C12.8403 22.8767 19.18 25.5083 21.5723 23.116L23.845 20.8432C24.6824 19.8863 24.6824 18.4509 23.845 17.6136Z" fill="white"/>
</g>
<defs>
<clipPath id="clip0">
<rect width="24" height="24" fill="white" transform="translate(0.5)"/>
</clipPath>
</defs>
</svg>
