<svg width="24" height="24" viewBox="0 0 24 24" fill="none" xmlns="http://www.w3.org/2000/svg">
<path d="M19.651 6.19355V1.16129H7.20893C7.0358 0.495023 6.43474 0 5.71555 0C4.86159 0 4.16716 0.69443 4.16716 1.54839C4.16716 2.26796 4.66256 2.86883 5.32845 3.04177V4.84173L0.0484009 8.90323L5.32845 12.9647V14.7097H2.61878V18.5806H5.32845V20.9582C4.66256 21.1312 4.16716 21.732 4.16716 22.4516C4.16716 23.3056 4.86159 24 5.71555 24C6.56951 24 7.26394 23.3056 7.26394 22.4516C7.26394 21.732 6.76835 21.1312 6.10265 20.9582V18.5806H8.81232V14.7097H6.10265V12.9647L10.8794 9.29032H14.6188V11.6129H23.9091V6.19355H19.651ZM6.48974 22.4516C6.48974 22.8786 6.14253 23.2258 5.71555 23.2258C5.28857 23.2258 4.94136 22.8786 4.94136 22.4516C4.94136 22.0246 5.28857 21.6774 5.71555 21.6774C6.14253 21.6774 6.48974 22.0246 6.48974 22.4516ZM8.03813 17.8065H3.39297V15.4839H8.03813V17.8065ZM4.94136 1.54839C4.94136 1.12141 5.28857 0.774194 5.71555 0.774194C6.14253 0.774194 6.48974 1.12141 6.48974 1.54839C6.48974 1.97537 6.14253 2.32258 5.71555 2.32258C5.28857 2.32258 4.94136 1.97537 4.94136 1.54839ZM5.71555 12.2856L1.318 8.90323L5.71555 5.52085L10.1129 8.90323L5.71555 12.2856ZM10.8794 8.51613L6.10265 4.84173V3.04177C6.64417 2.90096 7.06793 2.477 7.20893 1.93548H18.8768V6.19355H14.6188V8.51613H10.8794ZM23.1349 10.8387H15.393V6.96774H23.1349V10.8387Z" fill="#009DFE"/>
<path d="M16.1672 7.74194H22.3607V8.51614H16.1672V7.74194Z" fill="#009DFE"/>
<path d="M16.1672 9.29028H21.5865V10.0645H16.1672V9.29028Z" fill="#009DFE"/>
<path d="M10.3607 21.2902H22.7478V14.3225H10.3607V21.2902ZM11.1349 15.0967H21.9736V20.5161H11.1349V15.0967Z" fill="#009DFE"/>
<path d="M11.9091 15.8708H12.6833V16.645H11.9091V15.8708Z" fill="#009DFE"/>
<path d="M13.4575 15.8708H21.1994V16.645H13.4575V15.8708Z" fill="#009DFE"/>
<path d="M13.4575 17.4194H21.1994V18.1936H13.4575V17.4194Z" fill="#009DFE"/>
<path d="M11.9091 17.4194H12.6833V18.1936H11.9091V17.4194Z" fill="#009DFE"/>
<path d="M11.9091 18.9678H12.6833V19.742H11.9091V18.9678Z" fill="#009DFE"/>
<path d="M13.4575 18.9678H21.1994V19.742H13.4575V18.9678Z" fill="#009DFE"/>
</svg>
