<svg width="24" height="24" viewBox="0 0 24 24" fill="none" xmlns="http://www.w3.org/2000/svg">
<path d="M21.657 16.9382C21.4194 16.3283 20.8442 15.9345 20.1899 15.9345H16.918V15.3105L19.4416 12.7869H20.9083C21.0842 13.4641 21.6952 13.9673 22.4262 13.9673C23.2942 13.9673 24 13.2614 24 12.3935C24 11.5256 23.2942 10.8197 22.4262 10.8197C21.6952 10.8197 21.0842 11.3229 20.9083 12.0001H19.2787C19.1744 12.0001 19.0741 12.0414 19.0005 12.1153L16.918 14.1978V12.9498L21.5241 8.34379C21.598 8.27022 21.6393 8.17029 21.6393 8.06563V3.28845C22.3161 3.11258 22.8197 2.50196 22.8197 1.77055C22.8197 0.902613 22.1138 0.196777 21.2459 0.196777C20.378 0.196777 19.6721 0.902613 19.6721 1.77055C19.6721 2.50196 20.1757 3.11258 20.8525 3.28845V7.90274L20.459 8.29619L19.2787 7.11586V5.31153H18.4918V7.27874C18.4918 7.3834 18.5331 7.48334 18.6071 7.55691L19.9027 8.85252L17.7049 11.0503L16.918 10.2634V8.85252H16.1311V10.4263C16.1311 10.5309 16.1725 10.6309 16.2464 10.7044L17.1486 11.6066L16.2464 12.5088C16.1725 12.5824 16.1311 12.6823 16.1311 12.7869V15.9345H14.5574V9.40884L16.8028 7.16347C16.8767 7.08989 16.918 6.98996 16.918 6.8853V4.46878C17.5948 4.29291 18.0984 3.68229 18.0984 2.95088C18.0984 2.08294 17.3925 1.37711 16.5246 1.37711C15.6567 1.37711 14.9508 2.08294 14.9508 2.95088C14.9508 3.68229 15.4544 4.29291 16.1311 4.46878V6.72242L13.8858 8.96779C13.8118 9.04137 13.7705 9.1413 13.7705 9.24596V15.9345H12.1967V3.28845C12.8734 3.11258 13.377 2.50196 13.377 1.77055C13.377 0.902613 12.6712 0.196777 11.8033 0.196777C10.9353 0.196777 10.2295 0.902613 10.2295 1.77055C10.2295 2.50196 10.7331 3.11258 11.4098 3.28845V11.4437L10.2295 10.2634V7.27874H9.44262V10.4263C9.44262 10.5309 9.48393 10.6309 9.5579 10.7044L11.4098 12.5564V15.9345H9.83607V13.9673C9.83607 13.8626 9.79475 13.7627 9.72079 13.6891L6.06452 10.0328L8.14702 7.95035C8.22098 7.87678 8.26229 7.77684 8.26229 7.67219V4.86222C8.93902 4.68635 9.44262 4.07573 9.44262 3.34432C9.44262 2.47638 8.73679 1.77055 7.86885 1.77055C7.00092 1.77055 6.29508 2.47638 6.29508 3.34432C6.29508 4.07573 6.79869 4.68635 7.47541 4.86222V7.5093L5.5082 9.47652L4.72131 8.68963V7.22288C5.39803 7.04701 5.90164 6.43638 5.90164 5.70497C5.90164 4.83704 5.1958 4.1312 4.32787 4.1312C3.45993 4.1312 2.7541 4.83704 2.7541 5.70497C2.7541 6.43638 3.2577 7.04701 3.93443 7.22288V8.85252C3.93443 8.95717 3.97574 9.05711 4.04971 9.13068L9.04918 14.1302V15.9345H7.47541V14.7542C7.47541 14.6495 7.4341 14.5496 7.36013 14.476L1.96721 9.08307V3.28845C2.64393 3.11258 3.14754 2.50196 3.14754 1.77055C3.14754 0.902613 2.4417 0.196777 1.57377 0.196777C0.705836 0.196777 0 0.902613 0 1.77055C0 2.50196 0.503607 3.11258 1.18033 3.28845V9.24596C1.18033 9.35061 1.22164 9.45055 1.29561 9.52412L3.3781 11.6066H3.14754C3.04328 11.6066 2.94295 11.6479 2.86938 11.7219L2.36813 12.2231C2.13403 12.0846 1.86492 12.0001 1.57377 12.0001C0.705836 12.0001 0 12.7059 0 13.5738C0 14.4418 0.705836 15.1476 1.57377 15.1476C2.4417 15.1476 3.14754 14.4418 3.14754 13.5738C3.14754 13.2827 3.06295 13.0136 2.92446 12.7795L3.31043 12.3935H4.16498L6.68852 14.917V15.9345H3.41666C2.76236 15.9345 2.18715 16.3283 1.9499 16.9382L0.113705 21.6595C-0.0747541 22.1434 -0.0118033 22.6891 0.281705 23.118C0.575213 23.5472 1.06072 23.8033 1.58085 23.8033H22.0261C22.5458 23.8033 23.0317 23.5472 23.3252 23.118C23.6188 22.6891 23.6813 22.1434 23.4932 21.6595L21.657 16.9382ZM22.4262 11.6066C22.8602 11.6066 23.2131 11.9595 23.2131 12.3935C23.2131 12.8275 22.8602 13.1804 22.4262 13.1804C21.9923 13.1804 21.6393 12.8275 21.6393 12.3935C21.6393 11.9595 21.9923 11.6066 22.4262 11.6066ZM20.459 1.77055C20.459 1.33658 20.8119 0.983663 21.2459 0.983663C21.6799 0.983663 22.0328 1.33658 22.0328 1.77055C22.0328 2.20452 21.6799 2.55743 21.2459 2.55743C20.8119 2.55743 20.459 2.20452 20.459 1.77055ZM15.7377 2.95088C15.7377 2.51691 16.0906 2.16399 16.5246 2.16399C16.9586 2.16399 17.3115 2.51691 17.3115 2.95088C17.3115 3.38484 16.9586 3.73776 16.5246 3.73776C16.0906 3.73776 15.7377 3.38484 15.7377 2.95088ZM7.08197 3.34432C7.08197 2.91035 7.43489 2.55743 7.86885 2.55743C8.30282 2.55743 8.65574 2.91035 8.65574 3.34432C8.65574 3.77829 8.30282 4.1312 7.86885 4.1312C7.43489 4.1312 7.08197 3.77829 7.08197 3.34432ZM3.54098 5.70497C3.54098 5.27101 3.8939 4.91809 4.32787 4.91809C4.76184 4.91809 5.11475 5.27101 5.11475 5.70497C5.11475 6.13894 4.76184 6.49186 4.32787 6.49186C3.8939 6.49186 3.54098 6.13894 3.54098 5.70497ZM0.786885 1.77055C0.786885 1.33658 1.1398 0.983663 1.57377 0.983663C2.00774 0.983663 2.36066 1.33658 2.36066 1.77055C2.36066 2.20452 2.00774 2.55743 1.57377 2.55743C1.1398 2.55743 0.786885 2.20452 0.786885 1.77055ZM1.57377 14.3607C1.1398 14.3607 0.786885 14.0078 0.786885 13.5738C0.786885 13.1399 1.1398 12.7869 1.57377 12.7869C2.00774 12.7869 2.36066 13.1399 2.36066 13.5738C2.36066 14.0078 2.00774 14.3607 1.57377 14.3607ZM14.5574 16.7214H16.1311V17.5083H14.5574V16.7214ZM13.7705 16.7214V17.5083H12.1967V16.7214H13.7705ZM11.0164 1.77055C11.0164 1.33658 11.3693 0.983663 11.8033 0.983663C12.2372 0.983663 12.5902 1.33658 12.5902 1.77055C12.5902 2.20452 12.2372 2.55743 11.8033 2.55743C11.3693 2.55743 11.0164 2.20452 11.0164 1.77055ZM9.83607 16.7214H11.4098V17.5083H9.83607V16.7214ZM7.47541 16.7214H9.04918V17.5083H7.47541V16.7214ZM7.47541 19.8689V18.2951H9.04918V19.8689H9.83607V18.2951H11.4098V19.8689H12.1967V18.2951H13.7705V19.8689H14.5574V18.2951H16.1311V19.8689H16.918V18.2951H18.6016L19.5195 21.0492H4.08669L5.00459 18.2951H6.68852V19.8689H7.47541ZM22.6757 22.6738C22.5266 22.8917 22.2897 23.0164 22.0257 23.0164H1.58085C1.31725 23.0164 1.08039 22.8917 0.931279 22.6738C0.782164 22.4558 0.751475 22.1902 0.847082 21.9443L2.68328 17.223C2.8021 16.9185 3.0897 16.7214 3.41666 16.7214H6.68852V17.5083H4.72131C4.55174 17.5083 4.40184 17.6164 4.34793 17.7774L3.16761 21.3183C3.12748 21.4384 3.14793 21.5705 3.2219 21.6728C3.29587 21.7751 3.41469 21.8361 3.54098 21.8361H20.0656C20.1919 21.8361 20.3107 21.7755 20.3847 21.6728C20.4586 21.5702 20.4787 21.438 20.439 21.3183L19.2586 17.7774C19.2047 17.6164 19.0548 17.5083 18.8852 17.5083H16.918V16.7214H20.1899C20.5169 16.7214 20.8045 16.9185 20.9233 17.223L22.7595 21.9443C22.8551 22.1902 22.8248 22.4558 22.6757 22.6738Z" fill="#009DFE"/>
</svg>
