<svg width="24" height="24" viewBox="0 0 24 24" fill="none" xmlns="http://www.w3.org/2000/svg">
<g clip-path="url(#clip0)">
<path d="M4.29009 2.63745H4.28442C3.41634 2.65015 2.71031 3.36706 2.71031 4.23556V6.51931H0.35325C0.158156 6.51931 0 6.67747 0 6.87256C0 7.06765 0.158156 7.22581 0.35325 7.22581H2.71036V9.08309H0.35325C0.158156 9.08309 0 9.24125 0 9.43634C0 9.63143 0.158156 9.78959 0.35325 9.78959H2.71036V11.6468H0.35325C0.158156 11.6469 0 11.805 0 12.0001C0 12.1952 0.158156 12.3534 0.35325 12.3534H2.71036V14.2106H0.35325C0.158156 14.2106 0 14.3688 0 14.5639C0 14.759 0.158156 14.9171 0.35325 14.9171H2.71036V16.7744H0.35325C0.158156 16.7744 0 16.9325 0 17.1276C0 17.3227 0.158156 17.4809 0.35325 17.4809H2.71036V18.6889C2.71036 18.8839 2.86861 19.0421 3.06361 19.0421C3.25861 19.0421 3.41686 18.8839 3.41686 18.6889V4.23561C3.41686 3.75092 3.81061 3.35108 4.2953 3.34353C4.4903 3.34072 4.6462 3.18054 4.64292 2.98508C4.64006 2.79195 4.48275 2.63745 4.29009 2.63745Z" fill="#00BEFF"/>
<path d="M19.424 20.5101H4.50636C4.14228 20.5101 3.81824 20.2925 3.68024 19.9557C3.60627 19.7748 3.40044 19.6886 3.21959 19.7625C3.0387 19.8365 2.95255 20.0428 3.02647 20.2232C3.27327 20.8266 3.85405 21.2165 4.50636 21.2165H6.71666V23.6466C6.71666 23.8417 6.87481 23.9999 7.06991 23.9999C7.265 23.9999 7.42316 23.8417 7.42316 23.6466V21.2165H9.28044V23.6466C9.28044 23.8417 9.43859 23.9999 9.63369 23.9999C9.82878 23.9999 9.98694 23.8417 9.98694 23.6466V21.2165H11.8442V23.6466C11.8442 23.8417 12.0023 23.9999 12.1974 23.9999C12.3925 23.9999 12.5507 23.8417 12.5507 23.6466V21.2165H14.4079V23.6466C14.4079 23.8417 14.5661 23.9999 14.7612 23.9999C14.9563 23.9999 15.1144 23.8417 15.1144 23.6466V21.2165H16.9717V23.6466C16.9717 23.8417 17.1298 23.9999 17.3249 23.9999C17.52 23.9999 17.6782 23.8417 17.6782 23.6466V21.2165H19.424C19.619 21.2165 19.7773 21.0583 19.7773 20.8633C19.7773 20.6679 19.619 20.5101 19.424 20.5101Z" fill="#009DFE"/>
<path d="M23.6468 9.78952C23.8419 9.78952 24 9.63136 24 9.43627C24 9.24117 23.8419 9.08302 23.6468 9.08302H21.2897V7.22573H23.6468C23.8419 7.22573 24 7.06758 24 6.87248C24 6.67739 23.8419 6.51923 23.6468 6.51923H21.2897V4.23548C21.2897 3.35423 20.5728 2.63691 19.6911 2.63691H17.4808V0.35325C17.4808 0.158156 17.3226 0 17.1275 0C16.9324 0 16.7743 0.158156 16.7743 0.35325V2.63686H14.917V0.35325C14.917 0.158156 14.7589 0 14.5638 0C14.3687 0 14.2105 0.158156 14.2105 0.35325V2.63686H12.3533V0.35325C12.3533 0.158156 12.1951 0 12 0C11.8049 0 11.6468 0.158156 11.6468 0.35325V2.63686H9.78954V0.35325C9.78954 0.158156 9.63138 0 9.43629 0C9.2412 0 9.08304 0.158156 9.08304 0.35325V2.63686H7.22576V0.35325C7.22576 0.158156 7.0676 0 6.87251 0C6.67742 0 6.51926 0.158156 6.51926 0.35325V2.63686H5.70316C5.5077 2.63686 5.34991 2.79511 5.34991 2.99011C5.34991 3.18511 5.5077 3.34336 5.70316 3.34336C7.55365 3.34336 18.2101 3.34336 19.6911 3.34336C20.1833 3.34336 20.5832 3.74372 20.5832 4.23544V19.618C20.5832 19.8644 20.4852 20.0938 20.3067 20.2638C20.1654 20.3985 20.1597 20.6222 20.2945 20.763C20.3642 20.836 20.457 20.8728 20.5502 20.8728C20.6378 20.8728 20.7254 20.8403 20.7942 20.7753C21.1136 20.4705 21.2897 20.0594 21.2897 19.618V17.4808H23.6468C23.8419 17.4808 24.0001 17.3226 24.0001 17.1275C24.0001 16.9324 23.8419 16.7743 23.6468 16.7743H21.2897V14.917H23.6468C23.8419 14.917 24.0001 14.7588 24.0001 14.5637C24.0001 14.3686 23.8419 14.2105 23.6468 14.2105H21.2897V12.3533H23.6468C23.8419 12.3533 24.0001 12.1951 24.0001 12C24.0001 11.8049 23.8419 11.6468 23.6468 11.6468H21.2897V9.78952H23.6468Z" fill="#009DFE"/>
<path d="M16.7069 15.4379C16.3256 15.2818 16.1626 15.0746 16.1783 14.7655C16.1946 14.4046 15.9899 14.1403 15.8926 14.0359C15.9514 13.8115 16.123 13.0353 15.8928 12.3612C15.6454 11.6395 14.8901 10.5374 14.1108 9.45409C13.7918 9.00918 13.7767 8.52558 13.7593 7.9656C13.7425 7.43149 13.7237 6.82606 13.4259 6.15304C13.102 5.42022 12.4522 5 11.6429 5C11.1615 5 10.6673 5.15046 10.287 5.41276C9.50827 5.9502 9.6112 7.12195 9.67932 7.89731C9.68865 8.00349 9.69743 8.10378 9.70255 8.18941C9.7479 8.94879 9.70664 9.34902 9.65268 9.47067C9.61777 9.55016 9.44591 9.7764 9.26404 10.0159C9.07594 10.2637 8.8627 10.5445 8.6879 10.8061C8.47935 11.121 8.31098 11.6023 8.14816 12.0677C8.02903 12.4082 7.91651 12.7299 7.80696 12.9221C7.59935 13.2919 7.65101 13.6367 7.69414 13.7961C7.61554 13.8507 7.50199 13.9582 7.40613 14.1608C7.29028 14.4081 7.05522 14.5409 6.56641 14.6349C6.34179 14.6808 6.1869 14.7753 6.10591 14.9156C5.98806 15.1198 6.05225 15.3764 6.11081 15.5518C6.19734 15.8096 6.14342 15.9727 6.04539 16.2689C6.0228 16.3373 5.99718 16.4147 5.97122 16.5001C5.93035 16.6348 5.9451 16.7573 6.01495 16.8642C6.19956 17.1464 6.73823 17.2459 7.29276 17.3114C7.62385 17.3507 7.98624 17.4831 8.33673 17.6112C8.68014 17.7367 9.03524 17.8665 9.35802 17.9059C9.40708 17.9121 9.45567 17.9152 9.50252 17.9152C9.98987 17.9152 10.2101 17.5918 10.2799 17.4589C10.4549 17.4232 11.0587 17.3088 11.6809 17.2935C12.3022 17.2757 12.9033 17.3984 13.0736 17.4366C13.1272 17.539 13.2683 17.7731 13.4932 17.8937C13.6169 17.9613 13.789 18 13.9652 18C13.9653 18 13.9652 18 13.9653 18C14.1535 18 14.5116 17.9555 14.795 17.6574C15.0776 17.3578 15.7839 16.9754 16.2996 16.6962C16.4147 16.6338 16.5224 16.5755 16.6168 16.5229C16.9065 16.3623 17.0646 16.1328 17.0505 15.8933C17.0387 15.6944 16.9071 15.5199 16.7069 15.4379ZM10.2933 15.3802C10.2573 15.1262 9.9305 14.8743 9.55204 14.5826C9.2426 14.344 8.89185 14.0736 8.79523 13.8447C8.59554 13.3723 8.75294 12.5418 9.02739 12.1141C9.16302 11.8999 9.2738 11.5752 9.38095 11.2611C9.49663 10.922 9.61628 10.5714 9.75007 10.4179C9.96195 10.1783 10.1578 9.71204 10.1925 9.34459C10.3909 9.534 10.6987 9.77436 10.983 9.77436C11.0268 9.77436 11.0693 9.76864 11.1099 9.75718C11.3044 9.701 11.5905 9.53567 11.8673 9.37583C12.1058 9.23799 12.4 9.068 12.5107 9.05253C12.7005 9.32506 13.8034 11.7657 13.9161 12.5495C14.0052 13.1697 13.911 13.6824 13.8637 13.8832C13.8256 13.878 13.7801 13.8737 13.7324 13.8737C13.4252 13.8737 13.3439 14.0414 13.3227 14.1415C13.2682 14.4017 13.2625 15.2335 13.2619 15.4204C13.1508 15.5615 12.5891 16.2261 11.7826 16.3455C11.4541 16.3933 11.1473 16.4175 10.8709 16.4175C10.6346 16.4175 10.4838 16.3992 10.4212 16.3897L10.0159 15.926C10.1757 15.8471 10.3355 15.6807 10.2933 15.3802ZM10.8076 7.73424C10.7949 7.73969 10.7825 7.74553 10.7703 7.75176C10.769 7.72431 10.7662 7.69647 10.7618 7.66856C10.7175 7.41388 10.5487 7.22902 10.3603 7.22902C10.3464 7.22902 10.3323 7.23009 10.317 7.23243C10.2049 7.2511 10.117 7.33528 10.0689 7.45463C10.1111 7.19275 10.2595 6.99886 10.4355 6.99886C10.6422 6.99886 10.8168 7.27744 10.8168 7.60718C10.8168 7.64874 10.8138 7.69008 10.8076 7.73424ZM12.4139 7.9306C12.4328 7.87033 12.443 7.80512 12.443 7.73743C12.443 7.43848 12.2534 7.20426 12.0112 7.20426C11.7746 7.20426 11.5821 7.44342 11.5821 7.73743C11.5821 7.75747 11.583 7.77754 11.5849 7.79758C11.5724 7.79276 11.5602 7.78807 11.5482 7.78355C11.521 7.70108 11.5072 7.61502 11.5072 7.52717C11.5072 7.16969 11.7357 6.87883 12.0166 6.87883C12.2974 6.87883 12.5259 7.16969 12.5259 7.52717C12.5259 7.67589 12.4849 7.81782 12.4139 7.9306ZM12.2068 8.62638C12.2027 8.64446 12.1941 8.65247 12.0989 8.702C12.0508 8.72702 11.991 8.75818 11.9161 8.80378L11.8661 8.83409C11.665 8.95599 11.1941 9.24152 11.0663 9.25827C10.9795 9.26995 10.9257 9.23628 10.805 9.15423C10.7778 9.13569 10.7488 9.116 10.7179 9.09618C10.5002 8.95335 10.3602 8.79603 10.3444 8.73452C10.4153 8.67966 10.5912 8.54237 10.6813 8.46109C10.8641 8.29111 11.0481 8.17688 11.1391 8.17688C11.1439 8.17688 11.1483 8.17722 11.1528 8.17807C11.2598 8.19696 11.5237 8.30228 11.7164 8.37917C11.8055 8.41472 11.8824 8.44541 11.9366 8.46484C12.1071 8.52341 12.196 8.59834 12.2068 8.62638ZM13.739 16.5701C13.8352 16.1361 13.946 15.5458 13.928 15.1978C13.9239 15.1187 13.9169 15.0327 13.9101 14.9495C13.8975 14.7939 13.8787 14.5627 13.8981 14.4941C13.9019 14.4923 13.9062 14.4907 13.9109 14.4894C13.9117 14.6884 13.9549 15.0853 14.2723 15.2237C14.3669 15.2649 14.475 15.2858 14.5936 15.2858C14.9115 15.2858 15.2642 15.1298 15.4087 14.9853C15.4938 14.9003 15.5654 14.7962 15.6155 14.7137C15.6265 14.7458 15.6332 14.7878 15.6296 14.8418C15.6108 15.1353 15.7534 15.5246 16.0248 15.6681L16.0643 15.6888C16.161 15.7396 16.4178 15.8744 16.4219 15.9383C16.4218 15.9384 16.4197 15.9459 16.4054 15.9592C16.3411 16.0179 16.1147 16.1335 15.8958 16.2453C15.5074 16.4436 15.0673 16.6684 14.8696 16.8763C14.5913 17.1692 14.2764 17.3659 14.0863 17.3659C14.0635 17.3659 14.0426 17.363 14.0241 17.3572C13.8176 17.2928 13.6477 16.9949 13.739 16.5701ZM6.7014 15.463C6.68035 15.3645 6.66372 15.2867 6.68158 15.2113C6.69454 15.1555 6.97018 15.0957 7.08791 15.0701C7.25342 15.0342 7.42459 14.9971 7.53652 14.9291C7.68787 14.8374 7.76984 14.6684 7.84213 14.5192C7.89447 14.4113 7.94852 14.2998 8.01283 14.2631C8.01646 14.261 8.022 14.2585 8.03257 14.2585C8.15306 14.2585 8.40591 14.5118 8.55159 14.7386C8.58855 14.7957 8.657 14.9102 8.73619 15.0428C8.97305 15.4392 9.29737 15.982 9.46675 16.1639C9.61939 16.3274 9.86648 16.6419 9.80569 16.9115C9.7612 17.1208 9.5243 17.2909 9.46842 17.3286C9.44813 17.3332 9.42302 17.3355 9.39349 17.3355C9.06929 17.3355 8.42756 17.0658 8.08278 16.9209L8.03176 16.8994C7.83923 16.8187 7.52493 16.7678 7.22098 16.7187C6.97914 16.6795 6.64795 16.6259 6.59305 16.5775C6.54856 16.5276 6.60017 16.3653 6.64569 16.2221C6.67847 16.1193 6.71231 16.0129 6.73085 15.9015C6.75715 15.7238 6.72621 15.5792 6.7014 15.463Z" fill="#009DFE"/>
</g>
<defs>
<clipPath id="clip0">
<rect width="24" height="24" fill="white"/>
</clipPath>
</defs>
</svg>
