<svg width="24" height="24" viewBox="0 0 24 24" fill="none" xmlns="http://www.w3.org/2000/svg">
<g clip-path="url(#clip0)">
<path d="M1.56787 1.54712H2.34139V2.32064H1.56787V1.54712Z" fill="#009DFE"/>
<path d="M3.11493 1.54712H3.88845V2.32064H3.11493V1.54712Z" fill="#009DFE"/>
<path d="M4.66193 1.54712H5.43545V2.32064H4.66193V1.54712Z" fill="#009DFE"/>
<path d="M12.2147 8.89266L12.0104 8.76538L11.8062 8.89266C10.2224 9.87769 8.40509 10.5162 6.54985 10.739L6.20898 10.78V13.9336C6.20898 17.6399 8.42983 20.9255 11.8661 22.3042L12.0104 22.3618L12.1547 22.3042C15.5911 20.9251 17.8118 17.6395 17.8118 13.9332V10.7796L17.4711 10.739C15.6162 10.5162 13.7984 9.87769 12.2147 8.89266ZM17.0383 13.9332C17.0383 17.2694 15.0701 20.2332 12.0104 21.5266C8.95086 20.2328 6.9825 17.2694 6.9825 13.9332V11.4614C8.75163 11.2026 10.4785 10.5889 12.0104 9.67393C13.5423 10.5889 15.2693 11.2026 17.0383 11.4614V13.9332Z" fill="#009DFE"/>
<path d="M24 0H0.020874V21.6586H8.02575C9.11086 22.6704 10.4143 23.4679 11.8882 23.9595L12.0104 24.0001L12.1326 23.9595C13.6066 23.4683 14.91 22.6704 15.9953 21.6586H24V0ZM23.2265 0.77352V3.09408H0.794394V0.77352H23.2265ZM12.0104 23.1839C8.0722 21.814 5.43551 18.1131 5.43551 13.9337V10.0491C7.78478 9.97191 10.0957 9.1914 12.0104 7.82717C13.9253 9.1914 16.2363 9.97153 18.5854 10.0491V13.9334C18.5854 18.1131 15.9488 21.814 12.0104 23.1839ZM16.7479 20.885C18.3912 19.0043 19.3589 16.558 19.3589 13.9334V9.28224H18.9721C16.5615 9.28224 14.1712 8.48549 12.2425 7.03911L12.0104 6.86499L11.7783 7.03911C9.84964 8.48549 7.45939 9.28224 5.04875 9.28224H4.66199V13.9334C4.66199 16.558 5.62965 19.0043 7.273 20.885H0.794394V3.8676H23.2265V20.885H16.7479Z" fill="#009DFE"/>
<path d="M10.0766 13.1499V14.3813C9.62773 14.5415 9.3031 14.967 9.3031 15.4704V18.5645C9.3031 19.2041 9.82375 19.7248 10.4634 19.7248H13.5575C14.1973 19.7248 14.7177 19.2041 14.7177 18.5645V15.4704C14.7177 14.967 14.3933 14.5415 13.9442 14.3813V13.1499C13.9442 12.0836 13.0768 11.2161 12.0104 11.2161C10.9442 11.2161 10.0766 12.0836 10.0766 13.1499ZM13.9442 18.5645C13.9442 18.7775 13.7707 18.9513 13.5575 18.9513H10.4634C10.2504 18.9513 10.0766 18.7775 10.0766 18.5645V15.4704C10.0766 15.2574 10.2504 15.0837 10.4634 15.0837H13.5575C13.7707 15.0837 13.9442 15.2574 13.9442 15.4704V18.5645ZM13.1707 13.1499V14.3101H10.8501V13.1499C10.8501 12.5102 11.3708 11.9896 12.0104 11.9896C12.6502 11.9896 13.1707 12.5102 13.1707 13.1499Z" fill="#009DFE"/>
<path d="M12.0104 15.4705C11.3708 15.4705 10.8501 15.9911 10.8501 16.6307C10.8501 17.1342 11.1747 17.5597 11.6236 17.7198V18.5645H12.3971V17.7198C12.8462 17.5597 13.1707 17.1342 13.1707 16.6307C13.1707 15.9911 12.6502 15.4705 12.0104 15.4705ZM12.0104 17.0175C11.7974 17.0175 11.6236 16.8438 11.6236 16.6307C11.6236 16.4177 11.7974 16.244 12.0104 16.244C12.2236 16.244 12.3971 16.4177 12.3971 16.6307C12.3971 16.8438 12.2236 17.0175 12.0104 17.0175Z" fill="#009DFE"/>
<path d="M1.56787 4.64111H12.3972V5.41463H1.56787V4.64111Z" fill="#009DFE"/>
<path d="M1.56787 6.18799H9.30307V6.9615H1.56787V6.18799Z" fill="#009DFE"/>
<path d="M1.56787 7.73535H6.20899V8.50886H1.56787V7.73535Z" fill="#009DFE"/>
</g>
<defs>
<clipPath id="clip0">
<rect width="24" height="24" fill="white"/>
</clipPath>
</defs>
</svg>
