<svg width="24" height="24" viewBox="0 0 24 24" fill="none" xmlns="http://www.w3.org/2000/svg">
<path fill-rule="evenodd" clip-rule="evenodd" d="M22.9175 3.9375H18C17.8057 3.9375 17.6484 4.09479 17.6484 4.28906C17.6484 4.48334 17.8057 4.64062 18 4.64062H22.9175C23.1268 4.64062 23.2969 4.81073 23.2969 5.02002V18.5581C23.2969 18.7674 23.1268 18.9375 22.9175 18.9375H1.08252C0.87323 18.9375 0.703125 18.7674 0.703125 18.5581V5.02002C0.703125 4.81073 0.87323 4.64062 1.08252 4.64062H8.80664V5.34375H1.75781C1.56354 5.34375 1.40625 5.50104 1.40625 5.69531V14.9844C1.40625 15.1785 1.56354 15.336 1.75781 15.336C1.95209 15.336 2.10938 15.1785 2.10938 14.9844V6.04688H8.80664V7.5H9.50977V6.04688H11.6484V6.5H12.3516V6.04688H14.4902V7.5H15.1934V6.04688H21.8906V17.5312H2.10938V16.4844C2.10938 16.2902 1.95209 16.1329 1.75781 16.1329C1.56354 16.1329 1.40625 16.2902 1.40625 16.4844V17.8828C1.40625 18.0771 1.56354 18.2344 1.75781 18.2344H22.2422C22.4365 18.2344 22.5938 18.0771 22.5938 17.8828V5.69531C22.5938 5.50104 22.4365 5.34375 22.2422 5.34375H15.1934V4.64062H16.5C16.6943 4.64062 16.8516 4.48334 16.8516 4.28906C16.8516 4.09479 16.6943 3.9375 16.5 3.9375H15.1934V3.23438H18.3457C18.54 3.23438 18.6973 3.07709 18.6973 2.88281V2.04895C19.1065 1.90375 19.4004 1.513 19.4004 1.05469C19.4004 0.473145 18.9272 0 18.3457 0C17.7642 0 17.291 0.473145 17.291 1.05469C17.291 1.513 17.5849 1.90375 17.9941 2.04895V2.53125H14.8418C14.6475 2.53125 14.4902 2.68854 14.4902 2.88281V3.9375H12.3516V2.04895C12.7608 1.90375 13.0547 1.513 13.0547 1.05469C13.0547 0.473145 12.5815 0 12 0C11.4185 0 10.9453 0.473145 10.9453 1.05469C10.9453 1.513 11.2392 1.90375 11.6484 2.04895V3.9375H9.50977V2.88281C9.50977 2.68854 9.35248 2.53125 9.1582 2.53125H6.00586V2.04895C6.4151 1.90375 6.70898 1.513 6.70898 1.05469C6.70898 0.473145 6.23584 0 5.6543 0C5.07275 0 4.59961 0.473145 4.59961 1.05469C4.59961 1.513 4.89349 1.90375 5.30273 2.04895V2.88281C5.30273 3.07709 5.46002 3.23438 5.6543 3.23438H8.80664V3.9375H1.08252C0.485596 3.9375 0 4.4231 0 5.02002V18.5581C0 19.155 0.485596 19.6406 1.08252 19.6406H8.70447C8.56842 20.9302 7.7157 21.6833 7.4469 21.8906H5.95312C5.37158 21.8906 4.89844 22.3638 4.89844 22.9453C4.89844 23.5269 5.37158 24 5.95312 24H18.0469C18.6284 24 19.1016 23.5269 19.1016 22.9453C19.1016 22.3638 18.6284 21.8906 18.0469 21.8906H16.554C16.2887 21.6841 15.433 20.9242 15.2959 19.6406H22.9175C23.5144 19.6406 24 19.155 24 18.5581V5.02002C24 4.4231 23.5144 3.9375 22.9175 3.9375ZM14.2 7.45835V7.5H14.2871L14.2 7.45835ZM18.3457 0.703125C18.5396 0.703125 18.6973 0.860779 18.6973 1.05469C18.6973 1.2486 18.5396 1.40625 18.3457 1.40625C18.1518 1.40625 17.9941 1.2486 17.9941 1.05469C17.9941 0.860779 18.1518 0.703125 18.3457 0.703125ZM12 0.703125C12.1939 0.703125 12.3516 0.860779 12.3516 1.05469C12.3516 1.2486 12.1939 1.40625 12 1.40625C11.8061 1.40625 11.6484 1.2486 11.6484 1.05469C11.6484 0.860779 11.8061 0.703125 12 0.703125ZM5.6543 0.703125C5.84821 0.703125 6.00586 0.860779 6.00586 1.05469C6.00586 1.2486 5.84821 1.40625 5.6543 1.40625C5.46039 1.40625 5.30273 1.2486 5.30273 1.05469C5.30273 0.860779 5.46039 0.703125 5.6543 0.703125ZM14.4902 4.64062V5.34375H12.3516V4.64062H14.4902ZM11.6484 4.64062V5.34375H9.50977V4.64062H11.6484ZM18.3984 22.9453C18.3984 23.1392 18.2408 23.2969 18.0469 23.2969H5.95312C5.75922 23.2969 5.60156 23.1392 5.60156 22.9453C5.60156 22.7514 5.75922 22.5938 5.95312 22.5938H18.0469C18.2408 22.5938 18.3984 22.7514 18.3984 22.9453ZM8.45435 21.8906C8.86652 21.4092 9.32373 20.6591 9.41144 19.6406H14.5886C14.6763 20.6591 15.1335 21.4092 15.5457 21.8906H8.45435Z" fill="#009DFE"/>
<path d="M10.084 11.5503H11.2174V12.1171H10.084V11.5503Z" fill="#009DFE"/>
<path d="M19.7585 10.703L17.8337 10.4281C17.4827 10.2125 17.1185 10.0195 16.7429 9.85011C15.5028 9.28837 14.1568 8.99851 12.7952 9.00001H12.4608C10.854 9.00116 9.27289 9.40436 7.86162 10.1728L6.89022 10.7028C5.75313 10.7156 4.63795 11.018 3.65006 11.5811C3.24859 11.8114 3.00069 12.2385 3 12.7012V14.3838C3 14.5404 3.12683 14.6672 3.28341 14.6672H4.23486C4.54433 15.5501 5.51089 16.015 6.39374 15.7055C6.87973 15.5352 7.26171 15.1531 7.43201 14.6672H15.0026C15.3121 15.5501 16.2786 16.015 17.1615 15.7055C17.6474 15.5352 18.0295 15.1531 18.1998 14.6672H18.3014C18.3375 14.6672 18.3733 14.6604 18.4068 14.647L19.3246 14.2788C19.7346 14.1164 20.0032 13.7196 20.0017 13.2788V10.9835C20.0017 10.8426 19.898 10.723 19.7585 10.703ZM6.94406 14.3272C6.81873 14.9405 6.21998 15.3361 5.6067 15.2107C4.9933 15.0854 4.59771 14.4867 4.72304 13.8733C4.84849 13.26 5.44724 12.8644 6.06052 12.9897C6.58825 13.0975 6.96712 13.5618 6.96701 14.1005C6.96701 14.1766 6.95928 14.2526 6.94406 14.3272ZM12.0675 14.1005H7.53371C7.53371 13.1615 6.77261 12.4003 5.83361 12.4003C4.89461 12.4003 4.1334 13.1615 4.1334 14.1005H3.5667V12.7012C3.56704 12.4417 3.7061 12.202 3.93139 12.0731C4.8561 11.5451 5.90233 11.2673 6.96701 11.2669H12.0675V14.1005ZM12.0675 10.7002H8.07838L8.13304 10.6704C9.34449 10.012 10.6902 9.63877 12.0675 9.57916V10.7002ZM12.6342 9.5667H12.7946C13.9365 9.56544 15.0681 9.7822 16.1287 10.2055L15.634 10.7002H12.6342V9.5667ZM17.7118 14.3272C17.5865 14.9405 16.9877 15.3361 16.3743 15.2107C15.761 15.0854 15.3654 14.4867 15.4908 13.8733C15.6161 13.26 16.215 12.8644 16.8283 12.9897C17.356 13.0975 17.7349 13.5618 17.7347 14.1005C17.7347 14.1766 17.727 14.2526 17.7118 14.3272ZM19.435 11.5502H18.5849V12.117H19.435V13.2788C19.4357 13.4876 19.3084 13.6755 19.1142 13.7522L18.3014 14.0786C18.3014 14.0526 18.2981 14.0267 18.2964 14.0007C18.2946 13.9746 18.2941 13.9441 18.2913 13.9157C18.2884 13.8873 18.2828 13.859 18.2783 13.8307C18.2737 13.8024 18.2703 13.774 18.2647 13.7483C18.259 13.7225 18.2507 13.6939 18.2433 13.6669C18.236 13.64 18.2303 13.6128 18.2218 13.5864C18.2134 13.5601 18.2031 13.5349 18.1935 13.509C18.1838 13.4833 18.1751 13.4567 18.1652 13.4311C18.1552 13.4056 18.1419 13.3824 18.13 13.3583C18.1181 13.3342 18.1065 13.3078 18.0932 13.2835C18.0798 13.2592 18.0649 13.2384 18.0521 13.2158C18.0394 13.1931 18.0238 13.1673 18.0077 13.1441C17.9914 13.1208 17.9764 13.1025 17.9609 13.0815C17.9453 13.0605 17.9276 13.0358 17.9095 13.0141C17.8914 12.9923 17.8745 12.9752 17.8568 12.9573C17.8393 12.9396 17.8197 12.9155 17.8002 12.8956C17.7806 12.8758 17.7614 12.8601 17.7419 12.8426C17.7223 12.8251 17.7013 12.8043 17.6797 12.7859C17.6583 12.7675 17.6364 12.7534 17.615 12.7372C17.5934 12.7211 17.5718 12.7038 17.5492 12.6887C17.5265 12.6737 17.501 12.6604 17.4767 12.6445C17.4523 12.6286 17.4324 12.6162 17.4095 12.604C17.3865 12.5918 17.3579 12.579 17.3319 12.5666C17.3058 12.5541 17.2854 12.5431 17.2613 12.5329C17.2372 12.5226 17.2046 12.5119 17.1763 12.5018C17.148 12.4915 17.1295 12.4836 17.1054 12.476C17.0732 12.466 17.0401 12.4589 17.0071 12.4507C16.9855 12.4456 16.9649 12.4388 16.9431 12.4343C16.9083 12.4272 16.8725 12.4233 16.8371 12.4181C16.8162 12.4153 16.7961 12.4107 16.7751 12.4087C16.7184 12.4031 16.6618 12.4 16.6023 12.4C15.6636 12.4009 14.903 13.1615 14.9021 14.1002H12.6343V11.2668H15.7512C15.8264 11.2668 15.8985 11.2369 15.9515 11.1838L16.6863 10.449C16.9948 10.5958 17.2946 10.7598 17.5846 10.9404C17.6181 10.9613 17.6554 10.975 17.6945 10.9806L19.435 11.2291V11.5502Z" fill="#009DFE"/>
</svg>
